<svg width="350" height="175" viewBox="0 0 350 175" fill="none" xmlns="http://www.w3.org/2000/svg">
<path d="M166.154 103.982H160.955V133.033H166.154V103.982Z" fill="#1D1D1B"/>
<path d="M189.331 103.982V122.191L179.356 103.986H179.353V103.982H174.15V133.033H179.353V114.799L189.331 133.011V133.033H194.533V103.982H189.331Z" fill="#1D1D1B"/>
<path d="M217.57 108.806V103.998H207.527V103.991H202.251V133.042H202.266V133.096H217.57V128.284H207.527V116.49H213.886V112.663H207.527V108.806H217.57Z" fill="#1D1D1B"/>
<path d="M270.765 134.037C262.698 134.037 256.135 127.123 256.135 118.623C256.135 110.123 262.698 103.209 270.765 103.209C278.831 103.209 285.394 110.123 285.394 118.623C285.394 127.123 278.831 134.037 270.765 134.037ZM270.765 108.685C265.719 108.685 261.611 113.143 261.611 118.623C261.611 124.103 265.719 128.561 270.765 128.561C275.81 128.561 279.918 124.103 279.918 118.623C279.918 113.143 275.81 108.685 270.765 108.685Z" fill="#1D1D1B"/>
<path d="M303.794 134.037C295.727 134.037 289.164 127.123 289.164 118.623C289.164 110.123 295.727 103.209 303.794 103.209C311.86 103.209 318.423 110.123 318.423 118.623C318.423 127.123 311.863 134.037 303.794 134.037ZM303.794 108.685C298.748 108.685 294.64 113.143 294.64 118.623C294.64 124.103 298.744 128.561 303.794 128.561C308.843 128.561 312.947 124.103 312.947 118.623C312.947 113.143 308.843 108.685 303.794 108.685Z" fill="#1D1D1B"/>
<path d="M249.39 103.331L244.931 121.893L241.298 106.779L240.47 103.331H236.701L235.876 106.779L232.225 121.973L227.745 103.331H222.323L229.488 133.159H229.536H234.91H234.961L238.587 118.063L242.213 133.159H242.224H247.635H247.646L254.811 103.331H249.39Z" fill="#1D1D1B"/>
<path d="M143.364 103.982C142.74 103.982 142.061 103.982 141.368 103.982H137.906V133.033H142.718V126.24C142.933 126.24 143.148 126.236 143.364 126.236C150.073 126.236 155.512 121.238 155.512 115.076C155.512 108.915 150.076 103.982 143.364 103.982ZM143.021 121.432C142.918 121.432 142.82 121.424 142.718 121.421V108.528C142.82 108.524 142.918 108.517 143.021 108.517C146.964 108.517 150.16 111.406 150.16 114.974C150.16 118.542 146.964 121.432 143.021 121.432Z" fill="#1D1D1B"/>
<path d="M328.321 103.957C328.23 103.957 328.138 103.96 328.047 103.96V103.957H322.775V133.008H326.489C327.117 133.022 327.752 133.033 328.405 133.033C337.186 133.033 343.873 126.579 343.873 118.513C343.873 110.447 337.102 103.957 328.321 103.957ZM328.051 127.929L328.04 108.699C328.696 108.674 329.397 108.674 330.076 108.798C335.114 109.735 338.448 113.624 338.448 118.378C338.448 123.048 335.424 126.86 330.572 127.831C329.714 128.002 329.058 127.98 328.051 127.929Z" fill="#1D1D1B"/>
<path d="M268.352 168.083C268.156 166.259 267.269 164.723 266.135 163.545C264.449 161.793 262.136 160.852 261.461 160.374C261.264 160.236 261.115 160.199 260.994 160.006C260.965 159.962 261.49 158.893 261.786 158.463C262.537 157.375 262.793 156.773 262.815 156.164C262.851 155.04 261.844 153.745 259.783 153.599C257.754 153.453 255.583 153.913 254.569 155.438C254.139 156.084 254.059 156.554 253.967 157.131C253.815 158.116 254.004 159.437 255.5 160.991C254.376 162.093 252.136 164.281 250.961 165.31C249.765 166.357 248.805 166.857 247.05 166.908C245.296 166.956 244.646 165.989 244.646 165.989C244.646 165.989 248.142 163.585 249.896 161.042C250.498 160.17 251.107 159.36 251.137 158.466C251.169 157.397 250.91 156.106 249.633 155.019C247.773 153.432 244.482 153.65 241.779 155.347C240.615 156.073 239.711 157.306 239.108 158.612C238.313 160.349 237.861 162.362 238.733 165.434C238.813 165.723 238.904 165.992 238.999 166.252C238.437 166.66 237.682 167.156 237.127 167.346C236.124 167.685 235.748 168.098 234.858 166.631C234.446 165.868 232.603 162.348 231.775 159.517C230.947 156.686 230.725 155.38 230.611 154.836C230.498 154.293 229.109 154.581 228.167 154.69C227.226 154.8 226.361 156.832 225.161 159.261C224.078 161.454 222.045 164.796 221.655 165.431C221.458 165.117 221.225 164.716 220.951 164.198C219.973 162.348 218.583 156.795 218.131 155.996C217.679 155.197 217.303 155.343 216.325 155.343C215.348 155.343 214.687 156.372 212.943 158.284C211.188 160.206 209.765 162.158 209.371 162.53C209.529 160.914 209.66 159.502 209.66 158.973C209.66 157.62 209.809 156.649 209.16 156.117C208.507 155.584 206.755 156.164 204.147 158.054C202.779 159.046 201.469 160.115 200.528 160.907C200.397 158.404 199.342 156.292 198.131 155.489C196.927 154.69 194.231 155.011 192.67 155.537C190.711 156.193 187.807 158.2 185.654 160.765C184.917 161.461 182.739 163.344 180.893 164.829C178.489 166.766 177.486 167.393 177.11 166.981C176.887 166.737 176.778 166.248 176.727 165.868C176.639 164.256 176.632 161.877 176.632 160.568C176.632 158.583 177.234 156.503 175.381 156.212C173.743 155.956 171.072 157.758 168.865 159.017C167.595 159.743 165.91 160.994 164.71 161.928C165.392 160.206 166.753 157.372 167.442 155.956C167.679 155.887 167.92 155.821 168.157 155.752C170.218 155.139 172.28 154.515 174.326 153.804C175.352 153.453 176.38 153.081 177.416 152.68C177.945 152.457 178.453 152.257 179.022 151.976C179.31 151.845 179.558 151.71 179.81 151.575C180.065 151.436 180.317 151.294 180.569 151.148C181.575 150.549 182.579 149.885 183.513 148.995C183.98 148.554 184.432 148.05 184.841 147.452C185.242 146.854 185.603 146.142 185.778 145.3C185.964 144.468 185.906 143.519 185.629 142.706C185.567 142.509 185.472 142.293 185.373 142.082C185.264 141.874 185.147 141.67 185.008 141.48C184.738 141.097 184.41 140.758 184.049 140.473C183.327 139.908 182.502 139.572 181.718 139.404C180.93 139.236 180.175 139.214 179.467 139.28C178.048 139.408 176.811 139.845 175.691 140.371C174.571 140.904 173.568 141.549 172.641 142.246C172.411 142.421 172.185 142.6 171.951 142.801C171.714 142.994 171.495 143.195 171.28 143.399C170.846 143.804 170.448 144.227 170.065 144.658C169.303 145.519 168.642 146.42 168.033 147.339C166.891 149.068 165.935 150.86 165.089 152.676C161.189 153.745 157.942 154.573 154.524 155.631C150.306 156.839 146.417 158.919 142.846 161.388C141.178 162.552 139.734 163.971 138.322 165.398C138.209 165.544 137.61 166.368 138.088 166.463C138.428 166.529 138.822 166.325 139.124 166.113C139.216 166.044 139.303 165.974 139.394 165.905C139.511 165.806 139.584 165.733 139.584 165.733L139.544 165.796C140.945 164.759 142.426 163.836 143.955 163.012C145.783 162.038 147.764 161.195 149.715 160.516C151.671 159.834 153.732 159.181 155.779 158.773C158.055 158.313 160.138 157.904 162.371 157.332C161.977 158.101 161.521 159.064 161.039 160.225C159.635 163.61 156.731 171.257 156.428 172.709C156.129 174.161 157.329 173.869 157.329 173.869C157.329 173.869 159.836 172.997 160.737 172.417C161.503 171.925 161.725 171.188 161.776 170.976C161.776 170.976 162.743 168.853 164.37 166.405C165.439 164.792 166.826 163.333 167.741 162.665C169.934 161.067 170.897 161.02 170.897 162.085C170.897 163.151 170.908 167.434 170.959 168.302C171.003 169.086 171.174 171.323 172.309 172.038C172.331 172.052 172.349 172.063 172.371 172.078C172.407 172.1 172.448 172.122 172.488 172.14C173.137 172.446 174.414 172.508 176.72 170.867C179.354 168.995 181.995 166.416 183.462 164.949C183.133 166.317 182.798 167.806 183.162 169.05C183.666 170.775 184.968 172.242 187.748 172.497C191.021 172.796 193.626 171.826 195.618 170.476C197.609 169.126 198.89 167.149 199.627 165.566C199.642 165.533 199.656 165.5 199.671 165.464C200.065 165.059 200.652 164.365 201.13 163.41C201.932 161.812 203.436 160.505 204.286 160.071C205.139 159.637 205.238 159.925 205.238 161.571C205.238 163.216 204.009 169.63 204.009 169.63L203.694 170.874C203.509 171.567 203.866 171.965 204.443 172.03C204.687 172.056 204.979 172.074 205.336 172.074C206.891 172.074 208.044 171.669 208.142 171.494C208.248 171.304 208.35 170.899 208.441 170.432C208.773 169.542 209.408 167.937 210.145 166.511C211.235 164.405 213.377 161.757 213.377 161.757C213.377 161.757 213.866 163.534 215.03 165.821C216.194 168.108 217.587 170.177 218.186 170.976C218.729 171.698 219.67 171.855 219.846 171.881C220.656 172.001 221.159 171.582 222.432 169.962C223.972 168.003 226.868 163.213 226.868 163.213C226.868 163.213 229.576 169.207 230.364 170.144C230.364 170.144 231.016 171.691 232.921 171.45C234.665 171.228 238.671 168.532 239.707 167.766C241.286 170.414 244.154 171.045 245.365 171.012C247.171 170.965 249.539 169.9 250.991 168.689C252.442 167.477 255.751 164.187 256.704 163.074C256.9 162.84 257.083 162.629 257.244 162.439C259.622 164.103 261.764 164.894 263.143 166.693C264.646 168.652 263.18 170.976 261.45 171.301C259.721 171.629 258.367 170.031 257.806 169.378C257.525 169.053 257.244 168.692 256.773 168.127C256.682 168.021 256.499 167.751 256.208 167.926C256.029 168.036 255.642 168.543 255.577 168.809C255.525 169.002 255.555 169.353 255.766 170.162C256.226 171.932 257.959 175 261.155 175C263.449 175 265.084 174.435 266.415 173.293C267.769 172.169 268.597 170.352 268.352 168.083ZM170.996 149.313C171.605 148.536 172.243 147.795 172.911 147.12C173.25 146.788 173.589 146.463 173.947 146.172C174.122 146.026 174.301 145.88 174.483 145.748C174.658 145.613 174.855 145.478 175.052 145.343C175.833 144.803 176.647 144.337 177.464 143.986C178.277 143.64 179.106 143.417 179.821 143.373C180.543 143.315 181.101 143.508 181.295 143.694C181.346 143.742 181.382 143.786 181.408 143.829C181.422 143.851 181.43 143.877 181.444 143.899C181.451 143.924 181.462 143.946 181.477 143.997C181.524 144.165 181.535 144.282 181.495 144.461C181.437 144.807 181.043 145.413 180.441 145.96C179.843 146.514 179.091 147.054 178.281 147.54C178.077 147.66 177.869 147.78 177.661 147.897C177.449 148.014 177.23 148.131 177.033 148.222C176.654 148.415 176.172 148.612 175.724 148.809C174.786 149.196 173.823 149.579 172.842 149.94C171.809 150.32 170.773 150.699 169.73 151.071C170.138 150.466 170.558 149.878 170.996 149.313ZM193.275 168.072C191.521 168.937 190.142 169.09 189.302 168.521C188.617 168.054 188 165.697 188.514 163.428C188.861 161.888 189.857 160.597 190.868 159.743C190.846 160.673 191.367 161.888 192.772 162.654C194.18 163.42 196.216 163.333 197.241 163.227C196.657 165.613 194.986 167.226 193.275 168.072ZM196.333 161.297C194.804 161.144 193.877 160.232 193.575 159.265C193.275 158.298 194.275 158.346 194.275 158.346L194.282 158.338C195.665 158.255 197.132 158.751 197.383 160.94C197.402 161.089 197.409 161.239 197.416 161.388C197.091 161.363 196.723 161.334 196.333 161.297ZM242.943 160.17C242.753 157.846 243.431 156.503 244.522 156.503C245.613 156.503 246.751 157.667 246.967 159.59C247.167 161.385 245.777 162.826 245.103 163.41C244.898 163.588 244.584 163.574 244.391 163.38C243.92 162.917 243.07 161.771 242.943 160.17ZM258.579 158.357C258.579 158.357 257.222 157.693 257.302 156.868C257.379 156.069 258.393 155.818 258.842 156.54C259.291 157.266 258.579 158.357 258.579 158.357Z" fill="#048410"/>
<path d="M49.0128 27.7954C49.0128 27.7954 49.8337 26.3616 49.115 25.8508C48.3999 25.3401 47.5791 26.0551 47.2726 25.3401C46.9662 24.625 47.2726 23.2934 47.2726 23.2934C47.2726 23.2934 45.4303 22.4726 44.5072 21.9618C43.5842 21.4511 42.4606 20.4259 42.3584 19.9152C42.2563 19.4044 41.0268 18.89 39.7974 19.3022C38.5679 19.7145 36.6234 20.3274 35.1896 18.9958C33.7558 17.6642 33.143 17.4599 33.7559 16.6426C34.3688 15.8218 34.8831 14.8003 35.9047 14.8003C36.9262 14.8003 38.3636 15.1067 38.5679 14.596C38.7722 14.0852 39.8995 12.8558 41.0268 13.881C42.1541 14.9061 43.3799 15.0083 43.3799 15.0083C43.3799 15.0083 45.4266 13.4723 46.3496 13.9831C47.2726 14.4938 46.7582 15.2126 48.192 15.519C49.6257 15.8254 50.0343 15.8254 49.9322 15.2126C49.83 14.5996 46.9625 14.0852 46.8603 12.1407C46.7582 10.1962 47.6812 8.55815 48.192 7.94159C48.7027 7.32872 50.5451 7.12073 51.0595 6.40569C51.5702 5.69064 50.9573 4.35904 51.4681 3.74247C51.9789 3.12954 52.7997 2.81944 52.7997 2.81944C52.7997 2.81944 52.1868 -0.456646 52.9018 0.0541077C53.6169 0.564865 53.8249 0.666977 54.1313 1.7943C54.4378 2.92162 54.6421 3.53448 55.4629 3.73884C56.2838 3.94313 57.2031 4.76398 57.3053 5.37685C57.4074 5.98978 57.6118 6.91281 57.6118 6.91281C57.6118 6.91281 59.6584 6.81063 59.8627 8.75517C60.067 10.6996 60.2713 11.3162 60.99 11.6227C61.7051 11.9291 62.7302 11.827 63.5511 11.9291C64.3719 12.0313 65.6999 12.542 65.9042 13.1586C66.1085 13.7715 65.7692 15.4096 67.1993 15.4096C68.6331 15.4096 69.7239 15.2746 70.1361 15.0666C70.5487 14.8586 73.073 14.3844 73.686 15.5117C74.2991 16.639 75.9038 18.5835 74.5724 19.5065C73.241 20.4295 71.9089 19.0979 70.7493 19.1636C69.8079 19.2184 68.5309 18.5142 67.8122 19.2329C67.0936 19.9516 67.3343 20.4259 67.5386 21.0425C67.7429 21.6553 67.2321 23.3956 66.7178 23.5013C66.207 23.6035 65.3861 24.4244 65.4883 24.7308C65.5904 25.0373 65.284 25.6538 66.6156 26.1646C67.9472 26.6753 70.096 26.9854 70.9166 27.3941C71.7378 27.8026 72.7595 29.5429 73.8866 29.5429C75.0137 29.5429 76.1376 29.0321 77.2647 29.8493C78.3924 30.6702 78.9026 31.0788 78.9026 31.7938C78.9026 32.5089 78.5967 33.3297 77.2647 33.7384C75.9333 34.1469 75.3202 33.8405 74.8062 33.8405C74.2953 33.8405 72.8611 34.2491 71.9384 34.4534C71.0157 34.6577 69.7312 36.0404 69.4467 37.0473C68.8337 39.2326 68.3193 41.6222 67.8086 41.8265C67.2978 42.0308 66.7835 42.1001 65.5576 42.1001C64.3318 42.1001 66.8892 38.6197 66.1705 38.0032C65.4518 37.3866 67.1957 37.1166 66.9914 36.0915C66.7871 35.0663 64.2625 35.3764 64.2625 35.3764C64.2625 35.3764 60.782 34.7635 60.2676 35.2743C59.7569 35.785 59.5526 36.0951 58.4253 35.8872C57.298 35.6828 56.5829 35.6828 56.4808 36.1936C56.3786 36.7043 56.8894 37.8317 56.3786 38.2403C55.8679 38.6489 55.7657 40.1848 55.97 40.5934C56.1743 41.002 56.893 41.2063 56.9952 42.3336C57.0973 43.4609 57.0973 44.4824 57.0973 44.4824L52.8982 50.5239C52.8982 50.5239 50.3372 54.6209 49.8264 54.5188C49.3156 54.4166 48.5969 54.5188 47.7797 54.8252C46.9589 55.1317 46.2438 56.0547 44.7079 55.4381C43.172 54.8252 42.6612 54.413 42.3548 54.2087C42.0483 54.0044 41.7418 53.0814 41.1253 53.1835C40.5124 53.2857 40.3045 54.5151 40.1001 54.8216C39.8958 55.128 39.7937 55.9489 38.8707 56.051C37.9477 56.1532 37.1305 54.8216 36.2075 55.128C35.2845 55.4345 34.2629 57.4811 33.8544 57.4811C33.4457 57.4811 30.5782 56.8682 29.9654 56.2517C29.3524 55.6351 27.0978 52.7713 26.8935 51.9504C26.6892 51.1296 24.949 51.0274 24.8468 51.5418C24.7447 52.0525 21.4686 53.5885 21.0599 53.5885C20.6514 53.5885 19.1155 53.5885 18.1924 53.0777C17.2694 52.5669 16.5544 51.1332 15.5292 50.3124C14.5041 49.4915 12.0488 49.6994 11.4322 49.185C10.8193 48.6743 8.46256 49.0829 7.95181 48.47C7.44105 47.8571 7.23675 45.9089 7.84966 45.6024C8.46257 45.296 9.38557 45.8068 9.79417 45.6024C10.2028 45.3981 10.615 44.4752 11.943 44.2708C13.2746 44.0665 14.194 44.0665 14.9127 44.6795C15.6314 45.2923 15.8357 42.9392 16.5507 42.8371C17.2658 42.7349 17.678 42.8371 18.0866 42.4285C18.4953 42.0199 18.9075 40.1775 19.8269 39.4588C20.7498 38.7437 21.5671 38.6379 22.18 38.6379C22.7929 38.6379 23.9202 39.353 24.3288 38.8423C24.7374 38.3315 25.4561 36.8977 24.1245 35.6683C22.7929 34.4388 22.18 34.1323 21.3591 33.8259C20.5383 33.5195 19.9254 31.7792 20.1296 31.1627C20.3339 30.5498 21.1548 30.2397 21.6655 30.3419C22.1763 30.444 24.0187 30.5461 24.4309 30.2397C24.8432 29.9332 25.5582 29.5246 26.4776 29.6268C27.397 29.7289 28.5243 30.2397 28.7286 30.652C28.9329 31.0642 29.958 32.0857 29.958 32.0857C29.958 32.0857 31.4939 32.0857 31.8004 31.3706C32.1068 30.6556 32.3111 29.8347 33.2342 29.7326C34.1571 29.6305 34.2593 29.5283 35.7952 29.6305C37.3312 29.7326 37.7397 29.7326 38.0462 30.039C38.3527 30.3455 37.944 30.2433 38.557 30.8599C39.1698 31.4764 39.3778 31.9872 39.6843 32.0893C39.9907 32.1915 41.2202 31.6807 41.4245 30.6556C41.6288 29.6305 41.833 29.324 43.2668 28.4046C44.7006 27.4816 47.7724 27.8938 47.7724 27.8938L49.0128 27.7954Z" fill="#048410"/>
<path d="M94.7787 32.5238C94.5123 32.4728 94.2934 32.2685 94.2424 31.9985C94.1913 31.7176 94.0454 31.4002 93.6477 31.4002C93.0859 31.4002 91.8929 31.4622 91.4041 31.4914C91.2691 31.4987 91.1414 31.5498 91.032 31.63C90.678 31.8927 89.766 32.4582 88.7299 32.221C87.3983 31.9146 85.1473 31.506 84.735 31.0937C84.3228 30.6815 82.8927 30.1707 82.0718 30.3787C81.251 30.5866 80.6381 30.8894 80.0252 30.4808C79.4123 30.0722 78.7957 30.1744 78.1828 29.3535C77.5699 28.5327 73.9509 26.5553 74.5638 23.8264C74.9468 22.1154 77.6684 23.5199 78.5914 23.6221C79.5144 23.7243 80.1273 23.6221 80.6381 23.1114C81.1489 22.6006 81.9697 21.269 82.7869 21.1668C83.6041 21.0647 85.0379 20.8604 85.4502 20.9625C85.8624 21.0647 86.6613 20.4846 86.986 19.8352C87.5989 18.6058 88.5985 18.8867 89.5216 18.6824C90.4445 18.4781 90.9553 19.2187 92.2103 19.1165C93.053 19.0472 92.6189 17.887 93.1333 17.3763C93.6477 16.8655 94.9064 16.8291 95.8294 17.0334C96.7524 17.2377 97.4346 17.2705 97.8432 17.4785C98.2518 17.6864 99.1237 16.9422 99.8388 17.2486C100.554 17.5551 100.503 17.6572 101.119 18.2738C101.736 18.8903 101.918 18.9414 102.349 19.2224C102.86 19.5543 104.293 19.6309 104.6 20.2475C104.906 20.8604 104.906 21.8856 105.829 21.9877C106.752 22.0899 107.467 22.192 107.569 21.8856C107.672 21.5791 108.901 20.3497 109.207 20.8604C109.514 21.3712 109.616 22.192 110.131 22.0899C110.437 22.0279 111.364 21.9658 112.06 21.9293C112.502 21.9038 112.845 22.2978 112.761 22.7319C112.6 23.5674 112.082 23.7827 111.564 24.173C110.743 24.7859 110.813 25.7089 110.302 25.5046C109.791 25.3003 109.211 25.0595 108.697 25.5739C108.186 26.0847 107.774 27.1098 106.957 27.212C106.136 27.3141 105.931 27.1098 105.523 27.3141C105.114 27.5184 105.931 29.6673 104.808 29.9774C103.684 30.2875 102.042 30.0795 101.429 30.2838C100.817 30.4881 100.2 30.386 99.9957 30.9989C99.7914 31.6118 97.8468 32.5348 97.5367 32.6369C97.2996 32.7172 96.7561 32.7938 96.5226 32.8266C96.4496 32.8376 96.3766 32.8339 96.3037 32.8193L94.7787 32.5238Z" fill="#048410"/>
<path d="M93.4454 39.6641C93.4454 39.6641 91.9095 40.7915 91.1944 40.2771C90.4794 39.7663 88.8413 37.5117 88.4291 37.3074C88.0204 37.1031 86.8931 36.4865 86.1781 36.3844C85.463 36.2822 84.1314 35.3592 82.902 35.9758C81.6725 36.5924 80.9575 37.3074 80.1366 37.4095C79.3157 37.5117 77.5756 37.8181 77.5756 37.8181C77.5756 37.8181 74.708 37.4095 73.8908 38.3289C73.0736 39.2482 72.0484 40.4777 71.4318 40.5798C70.819 40.682 68.973 40.0691 68.5643 39.759C68.1558 39.4489 66.2112 39.5547 65.799 39.759C65.3867 39.9633 65.2883 40.7841 64.5695 40.7841C63.8545 40.7841 62.625 40.3756 61.5998 39.9633C60.5747 39.5547 58.6302 40.474 58.1195 41.1928C57.6087 41.9078 57.7108 42.933 57.4043 43.2394C57.0979 43.5459 55.562 44.4689 55.4599 44.9797C55.3577 45.4904 49.5205 50.5068 49.5205 50.5068L50.1334 52.3491C50.1334 52.3491 50.7463 54.6001 52.1801 55.5231C53.6138 56.4461 55.4562 58.6971 56.89 58.9014C58.3237 59.1057 57.9151 58.9014 59.3489 59.0035C60.7827 59.1057 61.702 59.7186 62.1143 60.233C62.5229 60.7437 62.4207 61.4624 63.6502 61.3603C64.8796 61.2581 66.1091 61.6667 66.4155 61.156C66.722 60.6452 67.0284 60.3351 67.3385 60.6452C67.645 60.9517 66.93 61.0538 68.1594 61.6704C69.3888 62.2869 70.0018 63.1041 70.7205 62.8998C71.4355 62.6955 72.3585 62.6955 73.0736 62.5934C73.7887 62.4912 74.5073 62.4912 74.5073 62.4912C74.5073 62.4912 77.3748 61.8783 78.5022 62.2869C79.6295 62.6955 80.1402 63.925 81.574 63.7207C83.0077 63.5164 84.0329 63.8228 84.3393 63.3121C84.6458 62.8013 85.2624 62.597 85.5688 62.6992C85.8753 62.8013 86.4918 63.0056 86.4918 63.0056C86.4918 63.0056 87.8235 63.2099 88.1299 63.1078C88.4364 63.0056 88.7428 63.0056 89.1551 62.6992C89.5673 62.3927 88.6443 62.1884 89.5637 62.3927C90.4867 62.597 88.8486 62.6992 90.4867 62.597C92.1247 62.4949 91.3076 60.8568 91.3076 60.8568L95.1966 58.3979L96.6303 58.7043C96.6303 58.7043 97.8598 55.8368 97.9619 54.9175C98.0641 53.9945 102.876 52.7687 102.774 52.3564C102.672 51.9441 102.263 50.9226 102.263 50.9226L101.65 50.1018C101.65 50.1018 100.829 50.8169 100.012 49.9996C99.195 49.1824 98.9871 48.2594 98.9871 47.6465C98.9871 47.0336 96.3239 43.1409 96.3239 43.1409C96.3239 43.1409 94.5836 42.2179 94.4815 41.7072C94.3647 41.2 93.4454 39.6641 93.4454 39.6641Z" fill="#048410"/>
<path d="M93.551 44.6037C93.551 44.6037 93.6531 45.7309 93.7553 46.1395C93.8574 46.5481 96.3163 49.3135 96.3163 49.3135L99.6946 48.3905C99.6946 48.3905 99.5924 46.9568 100.001 46.5481C100.41 46.1395 100.001 46.5481 100.512 46.2417C101.023 45.9353 100.41 45.4208 100.103 44.9101C99.7967 44.3993 100.001 43.9871 100.001 43.272C100.001 42.5569 100.512 42.8634 100.822 42.8634C101.132 42.8634 101.435 43.1699 101.745 43.4763C102.051 43.7828 102.872 44.9101 102.668 45.8294C102.464 46.7524 103.179 47.3653 103.489 48.0804C103.795 48.7954 103.08 49.5142 101.646 50.1271C100.213 50.74 98.166 51.3565 98.166 51.3565L96.2215 51.7651L95.6086 54.224C95.6086 54.224 99.089 56.475 99.3954 56.5772C99.7019 56.6793 101.136 57.0879 102.161 57.7045C103.186 58.3174 103.186 58.2152 103.901 57.9088C104.616 57.6023 105.131 54.6327 105.131 54.6327L106.156 54.5305C106.156 54.5305 107.181 54.7348 107.487 54.9391C107.794 55.1434 108.202 55.0413 108.202 55.0413L109.534 54.5305C109.534 54.5305 110.147 53.9176 110.457 53.6075C110.763 53.3011 111.172 54.1182 111.172 54.1182L112.401 54.4247C112.401 54.4247 113.427 54.0161 113.835 53.8118C114.244 53.6075 114.963 52.8888 114.963 52.8888C114.963 52.8888 116.192 52.378 116.805 52.378C117.418 52.378 117.213 52.991 117.728 53.1989C118.242 53.4068 119.57 53.1989 119.877 52.9946C120.183 52.7903 121.208 52.8924 121.515 53.7097C121.821 54.5305 120.694 54.9391 120.183 54.7348C119.672 54.5305 118.136 54.7348 118.136 55.4498C118.136 56.1649 117.728 56.3729 117.728 56.3729C117.728 56.3729 117.217 56.6793 116.907 57.1937C116.601 57.7045 116.907 58.2189 117.316 58.9339C117.724 59.649 118.647 60.0613 118.647 60.0613C118.647 60.0613 119.26 60.7763 120.081 61.3929C120.902 62.0094 122.026 60.4698 122.026 60.4698L124.689 60.9806C124.689 60.9806 126.225 60.9806 126.531 60.9806C126.838 60.9806 127.658 61.2871 128.271 61.4914C128.884 61.6957 130.624 61.0828 131.445 60.5684C132.266 60.0576 134.517 61.7978 134.517 61.7978C134.517 61.7978 135.747 62.4107 136.155 62.6187C136.564 62.8266 137.282 62.6187 137.691 62.4144C138.1 62.2101 139.431 61.9036 139.431 61.9036C139.431 61.9036 141.784 61.2907 141.992 58.8318C142.197 56.3729 139.431 56.4787 139.431 56.4787C139.431 56.4787 138.508 55.7636 138.304 55.3514C138.1 54.9428 137.177 54.8406 136.359 54.9428C135.539 55.0449 134.926 54.8406 134.721 53.8155C134.517 52.7903 136.462 52.4839 136.462 52.4839C136.462 52.4839 138.1 52.0752 138.508 49.8206C138.917 47.566 137.177 46.6467 136.257 46.3402C135.334 46.0337 134.211 46.851 134.211 46.851C134.211 46.851 132.164 46.3402 131.65 46.7488C131.139 47.1574 129.603 46.7488 128.986 46.238C128.373 45.7273 129.497 44.9064 129.909 44.2936C130.318 43.6806 129.909 44.2936 129.399 42.8598C128.888 41.426 130.012 41.0174 128.99 40.2987C127.965 39.5836 128.99 40.2987 127.046 39.8901C125.101 39.4815 127.046 39.8901 126.841 39.5836C126.637 39.2772 125.407 38.3542 124.076 38.5585C122.744 38.7628 122.642 38.0477 122.336 37.9456C122.029 37.8434 121.723 37.6391 121.208 37.1248C120.698 36.6139 121.208 37.1248 121.208 36.8183C121.208 36.5118 121.719 35.5888 121.719 35.5888C121.719 35.5888 121.719 35.1802 121.617 34.1551C121.515 33.1299 121.617 34.1551 121.515 33.8486C121.413 33.5421 120.592 33.0278 120.592 33.0278C120.592 33.0278 120.592 33.0278 119.771 32.4148C118.95 31.802 118.439 32.0062 118.031 32.1084C117.622 32.2105 117.006 32.6191 116.699 32.6191C116.393 32.6191 114.959 32.0062 114.036 32.1084C113.113 32.2105 113.423 33.44 113.423 33.9507C113.423 34.4615 112.296 34.5637 112.296 34.5637C112.296 34.5637 111.168 34.3594 110.658 34.0529C110.147 33.7464 109.53 33.5421 108.917 33.1299C108.304 32.7213 106.973 32.9256 106.458 33.232C105.944 33.5385 104.105 33.5385 103.591 33.6406C103.077 33.7428 102.876 32.7177 102.464 32.0026C102.055 31.2875 100.005 30.9774 100.005 30.9774L98.9795 30.1566L95.4991 31.386C95.4991 31.386 93.8611 33.2284 93.0402 33.3305C92.2194 33.4327 91.3 31.5903 90.2748 31.386C89.2497 31.1818 89.7641 32.6155 89.6619 32.9219C89.5598 33.2284 88.6368 33.4327 87.8196 33.5349C87.0024 33.637 85.3607 32.9219 84.7477 33.5349C84.1348 34.1477 86.9987 34.56 87.411 34.56C87.8232 34.56 88.6404 35.2751 88.7426 35.6873C88.8447 36.0996 90.2785 36.6103 90.7892 36.7125C91.3 36.8146 91.5043 38.3506 91.7122 38.9634C91.9165 39.5764 93.7589 41.831 94.4776 41.7288C95.1927 41.6266 96.4221 41.5245 96.4221 41.5245C96.4221 41.5245 97.1372 40.6015 97.4473 40.4994C97.7574 40.3972 99.494 39.1678 99.494 39.1678C99.494 39.1678 99.2897 41.3165 98.2645 42.0353C97.2393 42.7503 96.32 43.1626 96.32 43.1626H95.2949L93.551 44.6037Z" fill="#048410"/>
<path d="M49.3167 46.3428L49.8275 54.5331C49.8275 54.5331 50.7505 84.0218 50.5426 87.9108C50.3383 91.7998 50.5426 98.1478 50.5426 99.5814C50.5426 101.016 49.791 112.89 49.791 114.736C49.791 116.429 49.2146 164.692 49.1197 172.455C49.1124 173.192 49.459 173.769 50.1668 173.984C50.7359 174.155 51.8888 174.119 52.965 174.119C54.3623 174.119 55.0883 174.09 55.6902 173.805C56.1755 173.575 56.4819 173.086 56.4819 172.55L56.6862 101.628C56.6862 101.628 56.6862 98.3522 56.4819 96.3055C56.2776 94.2589 57.0948 90.3662 56.8905 87.9108C56.6862 85.4554 56.0697 78.4912 56.0697 77.6738C56.0697 76.8564 56.4782 69.6188 56.4782 67.9802C56.4782 66.3423 55.796 49.823 55.796 49.823L49.3167 46.3428Z" fill="#048410"/>
<path d="M93.5503 54.1221C93.5503 54.1221 96.2135 58.6278 96.2135 60.2658C96.2135 61.9037 95.6006 70.7109 95.6006 74.3955C95.6006 78.0801 95.8049 85.8618 95.8049 86.8873C95.8049 87.9122 94.7798 97.7405 94.7798 99.5828C94.7798 101.426 94.1668 116.785 94.1668 117.81C94.1668 118.755 94.207 165.813 94.2033 173.088C94.2033 173.661 94.5827 174.219 95.1519 174.292C95.8341 174.379 96.8118 174.405 97.8333 174.405C98.9096 174.405 100.008 174.401 100.661 174.201C101.102 174.062 101.405 173.653 101.405 173.19L101.336 97.3355C101.336 97.3355 101.949 88.1203 101.744 87.5072C101.54 86.8942 101.744 81.1592 101.744 81.1592L101.54 79.1125C101.54 79.1125 101.131 73.79 101.131 72.3564C101.131 70.9228 100.927 60.8895 100.927 60.8895L100.314 54.542L93.5503 54.1221Z" fill="#048410"/>
<path d="M40.2286 141.638C40.5715 142.182 41.1662 142.514 41.8083 142.521C46.5802 142.572 66.8097 142.773 73.8946 142.714C82.1542 142.645 105.105 142.747 106.743 142.747C108.381 142.747 117.991 142.645 117.991 142.645C117.991 142.645 120.176 138.584 119.764 138.176C119.352 137.767 87.1013 137.118 75.6348 136.844C64.1683 136.571 48.5247 136.443 45.7812 136.385C44.0592 136.348 41.0093 136.257 39.353 136.319C37.9192 136.37 37.5033 136.636 37.8536 137.253C38.2913 138.026 39.4333 140.379 40.2286 141.638Z" fill="#048410"/>
<path d="M26.3149 86.9865L27.1358 88.0773C27.1358 88.0773 37.6464 97.3621 42.152 100.773C46.3183 103.929 50.6159 108.964 50.6159 108.964L51.8454 102.82C51.8454 102.82 40.1053 93.1265 36.6906 89.8504C34.0419 87.3076 31.7764 85.892 31.7764 85.892L26.3149 86.9865Z" fill="#090104"/>
<path d="M57.116 108.461C57.116 108.461 75.8424 93.2408 76.3422 92.5257C76.842 91.8106 77.5754 90.3951 77.5754 90.3951L73.3361 90.3915C73.3361 90.3915 64.0367 96.8671 61.9645 98.6438C59.8886 100.417 53.8398 104.226 53.8398 104.226L57.116 108.461Z" fill="#090104"/>
<path d="M94.6297 109.151L75.9689 93.2044L73.623 92.0005L78.2636 89.6802C78.2636 89.6802 91.2332 100.191 93.1448 101.694C95.0565 103.197 96.1473 104.835 96.1473 104.835L94.6297 109.151Z" fill="#090104"/>
<path d="M98.2619 110.154L111.093 97.1841L109.181 94.4552L107.543 93.4993L97.9883 101.142L98.2619 110.154Z" fill="#090104"/>
<path d="M67.3971 60.4903L63.1797 68.6551L65.3322 70.2858L70.177 60.2203L68.2033 60.3991L67.3971 60.4903Z" fill="#427159"/>
<path d="M83.6562 67.1079L75.7395 60.4206L73.5542 61.1029L81.3359 69.1582L83.6562 67.1079Z" fill="#048410"/>
<path d="M57.582 70.4324C57.582 70.4324 62.3612 67.7035 63.3171 67.7035C64.2729 67.7035 66.046 69.8888 66.046 69.8888C66.046 69.8888 67.4104 70.571 68.0926 70.9797C68.7749 71.3882 70.3545 70.9212 71.3104 71.6035C72.2662 72.2857 71.6424 73.8472 72.7368 73.8472C73.8277 73.8472 74.6485 72.0741 75.1958 70.8446C75.743 69.6152 76.9688 68.6593 77.3811 68.798C77.7897 68.9329 79.0192 69.2066 79.1541 68.798C79.2891 68.3894 79.4277 67.9771 79.2891 67.1599C79.1541 66.3391 81.883 65.7955 81.883 65.7955C81.883 65.7955 84.8855 66.0691 85.7064 65.3869C86.5272 64.7047 88.8475 64.566 89.8034 64.7047C90.7592 64.8396 89.2561 60.6077 89.5297 60.199C89.8034 59.7905 94.7175 55.9671 94.7175 55.9671L100.314 57.1966C100.314 57.1966 102.226 58.6996 102.773 59.1083C103.32 59.5168 104.82 59.2432 104.82 59.9291C104.82 60.21 105.356 60.542 106.089 60.739C107.14 61.0236 108.154 61.3008 109.019 60.4764C109.475 60.0422 111.197 59.7868 112.397 59.9656C113.597 60.1407 114.615 61.3301 114.958 61.6037C115.64 62.1509 115.607 63.4825 117.107 63.2089C118.61 62.9353 119.974 63.0739 119.974 63.0739L123.659 62.6653C123.659 62.6653 127.756 61.8444 128.026 64.1683C128.3 66.4886 126.523 67.5795 125.024 67.7181C123.521 67.8531 121.747 67.0359 122.156 68.4003C122.565 69.7648 122.977 69.7648 125.024 70.1733C126.012 70.3704 128.434 67.4445 131.576 67.9881C133.166 68.2654 132.236 70.6841 132.94 71.6728C133.458 72.3951 136.18 72.0778 136.661 72.8658C137.45 74.1609 139.014 75.6312 134.169 77.6778C131.711 79.4509 130.62 79.3159 129.256 79.1809C127.891 79.0459 126.935 79.4545 125.844 80.0017C124.754 80.549 122.977 80.4104 122.568 80.2753C122.16 80.1404 121.478 80.1404 120.795 80.2753C120.113 80.4104 117.793 81.5048 117.245 81.7785C116.698 82.0521 113.014 83.8251 114.104 84.781C115.195 85.7368 118.336 84.0987 118.336 85.7368C118.336 87.3749 114.652 88.1957 116.425 89.8338C117.173 90.5233 120.076 88.5897 120.689 89.458C121.919 91.1982 121.313 92.8253 119.153 94.9851C118.128 96.0103 114.863 95.7914 114.035 96.1124C112.244 96.8092 113.831 97.5462 111.237 98.4327C110.197 98.7902 109.362 98.0496 108.643 97.8526C108.045 97.6884 107.242 98.8085 105.502 98.3634C104.834 98.1919 105.046 96.251 105.265 95.598C105.462 95.0106 105.498 94.6568 105.367 94.0621C105.093 92.8326 104.82 91.3332 103.729 91.6032C102.638 91.8768 101.682 92.2854 101.682 92.2854H99.6354L97.7237 94.1971L95.5384 95.7001L94.5826 94.6093C94.5826 94.6093 90.4855 95.0179 90.3506 92.4241C90.2156 89.8301 92.6709 88.7393 93.3531 88.6007C94.0353 88.4657 101.27 88.3271 102.773 86.9626C104.276 85.5981 107.413 83.9601 107.961 83.5515C108.508 83.1429 109.872 80.4104 110.69 79.8668C111.507 79.3232 113.557 79.4582 113.966 78.2287C114.374 76.9993 113.418 76.4557 111.78 76.0434C110.142 75.6312 108.369 73.8581 108.369 73.8581C108.369 73.8581 106.049 75.6312 105.502 76.0434C104.955 76.4557 103.181 77.1342 102.773 77.2729C102.364 77.4078 101.543 79.1152 101.543 79.1152C101.543 79.1152 103.59 79.8668 103.316 80.4104C103.043 80.9576 100.449 81.2312 100.449 81.2312L97.0378 81.0962C97.0378 81.0962 96.082 80.9612 95.2647 80.9612C94.4475 80.9612 94.3089 82.4643 93.7617 82.8729C93.2145 83.2815 88.8475 83.0079 88.8475 83.0079C88.8475 83.0079 86.5272 82.5993 87.2095 83.6901C87.8917 84.7809 88.9825 85.1932 89.9383 85.4632C90.8942 85.7368 91.4414 85.5981 91.7114 86.554C91.985 87.5098 92.3936 90.2387 92.3936 90.9209C92.3936 91.6032 87.2058 93.5149 86.5236 93.5149C85.8414 93.5149 80.3799 92.8326 80.3799 92.8326L71.5074 93.5149L68.7785 97.1996L65.4002 96.2109C65.4002 96.2109 62.2263 95.7001 62.7735 94.6057C63.3207 93.5149 64.0029 92.559 64.5465 91.8768C65.0938 91.1946 67.1404 90.1037 67.414 89.6915C67.6877 89.2829 67.2791 88.3271 66.7318 88.462C66.1846 88.597 64.2729 90.3737 63.7293 90.5087C63.1821 90.6437 61.544 90.6437 60.8618 90.2351C60.1796 89.8265 59.0888 89.2792 59.3587 88.732C61.4747 87.9805 61.2704 85.9338 61.2704 85.9338C61.2704 85.9338 59.9753 84.9086 59.8366 83.9528C59.7017 82.997 60.0409 80.5417 60.0409 80.5417L57.8556 75.2189L57.582 70.4324Z" fill="#048410"/>
<path d="M46.0695 79.7397C46.0695 79.7397 43.6507 88.2328 42.6146 91.0638C41.5785 93.8948 40.6445 94.0991 40.6445 94.0991L43.6945 96.8025C43.6945 96.8025 45.898 92.005 46.4161 89.0172C46.9341 86.0292 48.1453 81.4689 48.1453 81.4689L46.0695 79.7397Z" fill="#048410"/>
<path d="M90.2483 90.5488C90.2483 90.5488 90.4489 91.9132 90.0622 92.9275C89.6755 93.9416 87.4136 99.9175 87.4136 99.9175L88.5007 102.004L92.1162 92.9311L90.2483 90.5488Z" fill="#090104"/>
<path d="M106.727 73.3395L106.862 87.3998L109.729 85.8967L108.773 70.6069L106.727 73.3395Z" fill="#048410"/>
<path d="M62.4949 58.4594C62.4949 58.4594 57.4421 63.6472 57.0335 64.6031C56.6249 65.5589 54.3046 68.97 54.3046 68.97L53.896 64.7381L60.3133 57.9122L62.4949 58.4594Z" fill="#048410"/>
<path d="M79.7693 114.769H72.1372V126.764H79.7693V114.769Z" fill="#090104"/>
<path d="M23.3107 68.4641C23.3107 68.4641 22.3877 67.5411 21.2641 66.4175C20.1367 65.2902 18.8051 64.2687 18.2944 65.0858C17.7836 65.9067 17.8858 68.1577 17.8858 68.1577L20.0346 71.3317L23.3107 68.4641Z" fill="#048410"/>
<path d="M37.2363 49.6149C37.2363 49.6149 32.1178 50.64 32.5264 51.2529C32.935 51.8658 32.7306 54.3247 32.7306 54.3247L36.2111 57.8052L37.4406 60.2641C37.4406 60.2641 33.9601 60.877 32.5264 61.9022C31.0926 62.9273 29.2503 64.5654 29.2503 64.5654L25.5655 66.2034C25.5655 66.2034 24.336 69.071 23.3145 68.4544C22.7345 68.1042 20.4397 67.8561 17.6305 67.0206C15.4927 66.3859 14.172 63.9087 13.0229 64.6675C10.3085 66.4588 13.1761 70.0925 14.9163 71.8363C15.438 72.358 15.4271 74.6017 14.4055 74.806C13.384 75.0103 11.8444 73.7808 9.18486 75.6268C8.5829 76.0464 7.9773 76.185 7.5906 76.4951C6.68945 77.2138 6.17142 77.9216 5.0879 77.5385C3.87303 77.1081 1.96499 76.9147 1.53815 77.1299C0.717294 77.5385 -0.442847 78.903 0.173707 79.5195C0.78661 80.1324 1.47613 81.3035 2.1547 81.4312C2.8041 81.5552 5.02223 80.8183 5.29585 80.749C7.00325 80.3221 6.32099 82.5913 6.1167 83.4122C5.9124 84.233 5.5038 88.9393 7.75478 89.5558C10.0057 90.1688 11.6438 90.1688 12.4646 89.1472C13.2855 88.1221 15.8064 87.0495 16.7659 86.6883C17.7364 86.3235 18.0866 85.8237 18.1778 85.3823C18.2727 84.9116 18.7725 84.6453 19.2212 84.8168C20.7353 85.3932 20.8119 83.9412 22.2967 86.1411C22.5959 86.5862 21.7458 87.5201 22.0924 88.3264C22.501 89.2822 24.4126 90.7853 26.8533 89.8623C28.579 89.2093 32.3293 89.3515 32.3293 89.3515L34.1717 88.3264L36.4227 87.9178C36.4227 87.9178 38.6736 87.9178 39.2902 88.1221C39.9068 88.3264 42.1577 86.8926 42.5664 87.5092C42.9749 88.1257 42.5664 89.7602 44.8173 89.9681C47.0683 90.176 47.6849 88.1257 48.2977 87.7171C48.9107 87.3085 49.9358 83.8281 50.7567 84.441C51.5775 85.0539 51.7818 88.1257 53.6242 87.5128C55.4665 86.8999 57.3089 85.4662 57.3089 85.4662L58.334 82.3943C58.334 82.3943 59.3592 81.7814 60.585 81.5735C61.8145 81.3692 63.6568 80.1397 63.6568 79.5268C63.6568 78.9139 62.4274 75.4299 62.4274 75.4299C62.4274 75.4299 59.9685 68.261 58.5384 68.0567C57.1082 67.8524 56.0795 68.8776 56.0795 68.8776L52.3947 66.6266C52.3947 66.6266 50.7567 61.9168 50.1437 61.7124C49.5309 61.5081 47.6848 61.0995 47.6848 61.0995C47.6848 61.0995 47.8892 62.5333 46.0468 61.3038C44.2044 60.0744 44.613 58.6406 43.3836 58.0277C42.1541 57.4148 39.0823 59.6658 38.878 56.0832C38.8233 55.1419 41.5412 50.4503 40.516 50.0417C39.4909 49.6331 37.2363 49.6149 37.2363 49.6149Z" fill="#048410"/>
<path d="M50.5504 111.232L56.6247 107.598C56.6247 107.598 56.3876 94.6977 56.3876 94.0301C56.3876 93.3661 56.1833 89.0648 56.1833 88.0396C56.1833 87.0145 55.8768 84.4571 55.8258 84.2017C55.7747 83.9463 53.9323 81.9507 53.3158 82.0018C52.7029 82.0529 51.8309 83.027 51.8309 83.027L50.5504 83.691L50.4482 108.007L50.5504 111.232Z" fill="#090104"/>
<path d="M95.8511 80.434C95.8511 80.434 96.1065 86.1691 96.0554 89.0329C96.0043 91.9004 95.3914 100.857 95.3914 100.857L94.8916 104.337L95.1178 108.927L96.3618 111.094L98.8718 110.481L100.408 107.256L101.137 105.107C101.137 105.107 101.123 96.9679 101.123 96.3513C101.123 95.7384 101.021 84.3705 101.021 83.6554C101.021 82.9404 101.021 80.5836 101.021 80.5836C101.021 80.5836 100.306 81.0433 99.689 80.9411C99.0761 80.8389 96.5151 80.7368 96.5151 80.7368L95.8511 80.434Z" fill="#427159"/>
<path d="M52.7154 7.39684C52.606 7.02105 52.1755 6.84961 51.8398 7.04656C51.2889 7.37127 50.5192 7.84191 50.0339 8.20673C49.2131 8.81966 48.3703 8.37817 47.8596 8.78681C47.6224 8.9765 47.5458 9.79736 47.2978 10.4759C47.0059 11.2713 46.8089 12.3147 46.8964 12.5737C47.305 13.7667 48.1916 13.836 48.706 14.2446C49.2167 14.6532 50.2419 15.3719 51.1649 15.3719C52.0879 15.3719 53.3137 15.2697 53.8281 14.759C54.3388 14.2482 55.364 13.7338 55.9769 13.9381C56.5898 14.1424 57.75 15.2333 58.9466 14.416C59.461 14.0622 60.5847 13.3252 61.6098 13.4602C62.438 13.5697 63.0837 13.7922 63.5616 14.0111C64.0834 14.2555 64.678 13.8433 64.6342 13.2668C64.5868 12.6612 64.8896 12.1614 63.9338 12.0228C62.9159 11.8769 62.5 11.8185 61.7485 12.0228C61.256 12.1578 61.3398 11.1363 61.3398 10.7277C61.3398 10.3191 60.1797 10.0454 59.9754 9.63684C59.6981 9.07867 60.2491 6.76931 58.2352 6.9736C57.5895 7.03929 57.5201 8.20309 57.5201 8.20309C57.5201 8.20309 57.3159 9.84115 56.6993 10.0454C56.0864 10.2497 55.572 9.94329 55.4698 10.4541C55.3677 10.9648 55.7763 11.2749 55.2655 11.6835C54.7548 12.0921 54.4447 12.6065 53.5253 12.0921C52.6023 11.5814 52.0915 11.4792 52.1937 11.067C52.2959 10.6584 51.1685 9.32674 51.1685 9.32674C52.0915 8.71385 53.1131 9.32674 53.0109 8.61167C52.9525 8.26509 52.8285 7.79082 52.7154 7.39684Z" fill="#090104"/>
<path d="M38.0557 17.6746C38.0557 17.6746 38.9787 19.4149 40.3066 20.0278C41.6382 20.6407 43.2763 21.5637 43.1742 21.9723C43.072 22.3809 43.072 23.406 43.5828 23.7125C44.0935 24.0189 45.8338 23.3039 46.3481 23.8146C46.6072 24.0737 46.8917 24.5151 47.1106 24.8872C47.355 25.3031 47.7928 25.5694 48.2781 25.584C49.4273 25.6205 50 25.4162 50.7187 25.0076C51.1164 24.7814 52.6997 24.9383 53.6191 25.1426C54.5421 25.3469 54.3342 24.8361 55.2571 24.9383C56.1802 25.0404 56.078 25.3469 56.8952 24.6318C57.7124 23.9168 56.3844 24.4275 57.7161 23.9168C59.0477 23.406 60.4814 24.1211 60.5836 23.2017C60.6857 22.2787 60.7879 21.768 61.0943 21.1551C61.4008 20.5422 63.6554 18.2875 62.7324 18.1854C61.8094 18.0832 60.4815 19.4149 60.4815 19.4149C60.4815 19.4149 60.175 20.6443 59.3541 20.5422C58.5333 20.44 57.6139 21.7716 57.1032 21.5673C56.5924 21.363 56.4903 19.5206 55.9759 19.6228C55.4651 19.725 54.1335 20.7501 54.0313 20.1336C53.9292 19.5207 53.7249 18.3933 53.1084 18.0869C52.4918 17.7804 52.5975 16.0402 51.4703 16.1423C50.343 16.2445 49.6279 16.6531 49.6279 17.1676C49.6279 17.6819 50.0365 18.0905 49.3215 18.4992C48.6064 18.9077 47.8877 19.0099 47.8877 19.0099C47.8877 19.0099 46.0453 18.6013 45.5346 18.7035C45.0238 18.8056 44.1008 19.3163 43.7944 19.112C43.4879 18.9077 43.4879 18.0869 42.7692 17.7804C42.0541 17.474 42.2584 17.2697 41.3354 16.6531C40.4124 16.0402 39.7995 16.0402 39.2888 16.3467C38.7707 16.6495 38.0557 17.6746 38.0557 17.6746Z" fill="#090104"/>
<path d="M58.4353 35.8484C57.4613 35.7389 56.5637 36.4284 56.5054 37.4062C56.4908 37.6689 56.509 37.8841 56.5857 37.9862C56.8921 38.3949 56.2792 40.5473 55.0497 40.9559C53.8203 41.3645 54.1268 40.2409 53.616 39.2157C53.1052 38.1906 53.4117 37.169 52.0801 36.6546C50.7485 36.1439 49.6211 36.9611 49.3147 36.0417C49.0082 35.1187 49.8254 33.4806 48.7018 33.0721C47.5745 32.6635 46.8594 30.7189 47.8809 30.4088C48.9024 30.0987 50.1319 30.9196 50.9528 31.3319C51.7736 31.7441 53.2037 32.357 53.5138 31.9447C53.8203 31.5362 54.8454 30.1024 56.0749 30.3067C57.3044 30.511 58.9424 31.434 58.9424 31.434C58.9424 31.434 60.8869 31.7405 61.2955 30.4088C61.7041 29.0772 62.9336 27.8478 63.6487 27.5413C64.3637 27.2349 65.1846 29.2815 65.8485 29.8945C67.5304 31.4486 68.0484 28.8693 68.9715 29.4858C69.8944 30.1024 69.9966 30.9196 70.3031 31.0218C70.6095 31.1239 71.6347 32.3534 72.0433 31.9447C72.4519 31.5362 74.3964 29.8981 75.1151 30.2046C75.8302 30.511 73.3749 32.9699 74.5022 32.9699C75.6295 32.9699 76.8553 31.9447 77.6762 32.5613C78.497 33.1779 77.6762 33.9951 76.5488 33.9951C75.4215 33.9951 74.6044 34.608 73.1706 34.608C71.7368 34.608 70.3031 34.5058 70.7117 35.4288C71.1203 36.3518 70.6095 37.169 70.3031 37.6798C69.9966 38.1906 68.3585 38.3949 68.5628 39.1136C68.7671 39.8286 67.3334 40.1387 67.0269 39.7265C66.7205 39.3142 66.1258 38.8764 65.8996 38.3438C65.3524 37.0487 65.7793 35.6003 64.9438 35.8192C63.1014 36.2971 62.1128 35.4252 60.9854 35.2209C59.8581 35.0166 59.3474 35.323 59.0409 35.7316C58.9533 35.8593 58.7162 35.8812 58.4353 35.8484Z" fill="#090104"/>
<path d="M107.036 27.1869C107.857 27.0848 108.266 26.0596 108.776 25.5489C109.287 25.0381 109.867 25.2752 110.382 25.4796C110.622 25.5744 110.736 25.4212 110.871 25.1695C110.199 24.5638 109.532 24.064 109.119 24.013C108.029 23.878 107.208 24.5602 106.391 24.2866C105.57 24.013 101.068 20.7369 100.247 21.8277C99.426 22.9185 100.247 24.5566 100.247 24.5566C100.247 24.5566 95.7413 23.7357 95.6062 24.6915C95.4713 25.6474 91.9215 25.921 90.1449 26.1946C88.3718 26.4683 87.9595 27.1505 86.8687 27.5591C85.7779 27.9677 83.7276 25.786 82.2282 26.1946C80.7251 26.6032 80.5901 27.8327 80.8637 28.2413C81.1373 28.6499 85.7779 28.6499 85.6429 29.4708C85.5335 30.1311 83.7458 29.9049 83.122 30.3609C83.8224 30.4813 84.5521 30.7987 84.8221 31.0723C85.2307 31.4809 87.4853 31.8932 88.8169 32.1996C89.853 32.4368 90.7651 31.8713 91.1189 31.6086C91.2284 31.5284 91.356 31.4773 91.4911 31.47C91.9799 31.4445 93.1729 31.3788 93.7347 31.3788C94.1324 31.3788 94.2783 31.6962 94.3294 31.9771C94.3768 32.2471 94.5957 32.4514 94.8657 32.5024L96.3943 32.7943C96.4673 32.8089 96.5402 32.8089 96.6132 32.8016C96.8467 32.7688 97.3903 32.6922 97.6274 32.6119C97.9339 32.5097 99.8784 31.5867 100.086 30.9738C100.291 30.3609 100.907 30.4631 101.52 30.2588C102.133 30.0545 103.771 30.2588 104.898 29.9523C106.026 29.6459 105.205 27.4934 105.613 27.2891C106.015 27.0848 106.219 27.2891 107.036 27.1869Z" fill="#090104"/>
<path d="M102.048 37.0458C102.048 37.0458 103.551 36.3635 103.686 37.3194C103.821 38.2752 101.774 40.1869 102.865 41.6863C103.956 43.1895 105.733 43.4594 107.097 43.3244C108.462 43.1895 111.194 42.3686 111.329 43.1895C111.464 44.0103 110.647 45.9183 112.15 46.1919C113.653 46.4655 114.759 46.0424 115.561 47.1478C117.301 49.5374 118.257 46.4984 120.578 46.772C122.898 47.0456 123.069 50.8325 125.255 51.7883C127.44 52.7442 130.614 52.197 129.793 53.835C128.972 55.4731 121.431 54.1086 122.796 55.6081C124.16 57.1111 127.564 54.8565 129.691 56.5967C130.643 57.3775 132.106 58.6288 133.171 59.0557C134.623 59.6357 135.535 59.3402 135.218 60.2851C134.671 61.9232 133.886 60.3873 131.84 60.3873C131.161 60.3873 130.234 62.0034 128.564 61.5146C126.345 60.8652 125.922 61.0841 124.364 60.9673C123.354 60.8944 123.54 60.701 122.383 60.4894C122.055 60.4274 121.311 61.2701 121.052 61.4124C120.676 61.6167 120.267 61.438 120.027 61.3431C119.757 61.2373 119.348 60.7266 118.757 60.0042C118.403 59.5737 117.991 59.6211 117.374 59.1067C117.086 58.8659 116.772 58.2968 116.685 57.9794C116.488 57.2607 117.126 56.7646 117.633 56.418C117.969 56.1881 118.104 55.1885 118.633 54.9222C119.509 54.4734 120.618 55.0499 121.143 54.6668C121.986 54.0502 121.541 53.4374 121.128 53.1199C120.698 52.7843 120.092 52.9449 119.684 53.0798C119.25 53.2258 118.476 53.3242 118.006 53.182C117.272 52.9594 117.44 52.788 117.174 52.4779C116.907 52.1678 116.397 52.3173 115.97 52.5436C115.729 52.6713 115.226 52.6603 114.806 52.9157C114.332 53.2039 114.142 53.7329 113.617 54.0174C112.898 54.4005 112.073 54.5428 111.504 54.375C110.673 54.1305 110.979 52.2335 110.213 54.0029C109.768 55.028 108.396 55.5242 107.473 55.0134C106.123 54.2619 105.784 54.5026 105.477 55.6263C105.01 57.3373 104.726 56.0714 104.452 57.5708C104.179 59.0739 102.318 57.5197 100.68 56.9725C99.042 56.4253 96.8567 56.9725 96.583 54.7872C96.3094 52.6019 95.6272 50.8289 97.1303 50.8289C98.6334 50.8289 101.362 52.0583 101.362 51.2375C101.362 50.4166 101.362 47.6877 102.318 47.6877C103.274 47.6877 105.729 46.7319 103.548 45.0938C101.362 43.4557 101.362 40.3146 101.636 39.4974C101.913 38.6839 102.048 37.0458 102.048 37.0458Z" fill="#090104"/>
<path d="M98.6016 78.1673C98.6016 78.1673 96.3506 77.04 96.6571 75.8142C96.9635 74.5884 97.8865 74.8912 97.8865 73.8697C97.8865 72.8445 97.1715 71.0022 98.8096 71.0022C100.448 71.0022 102.29 72.3338 104.545 71.2065C106.796 70.0792 106.796 65.4714 109.357 66.3944C111.918 67.3175 111.71 71.2065 113.964 71.0022C116.215 70.7978 118.572 70.1813 120.721 70.3893C122.87 70.5972 122.461 71.823 122.155 72.5381C121.848 73.2531 121.232 74.5847 121.644 74.4826C122.053 74.3804 124.205 72.9467 124.92 74.074C125.635 75.2013 125.635 75.6099 126.354 75.6099C127.073 75.6099 128.4 75.2013 128.707 75.9163C129.013 76.6314 129.732 77.7587 128.809 78.1673C127.886 78.5759 127.273 78.5759 126.66 78.5759C126.354 78.5759 125.515 79.2727 124.271 79.3603C123.008 79.4515 121.341 78.9335 120.823 78.9845C120.352 79.0319 119.878 79.021 119.287 79.291C118.587 79.612 118.39 81.0604 118.058 81.3376C117.445 81.8484 116.215 82.2606 116.215 82.2606C116.215 82.2606 115.5 82.2606 115.602 83.0815C115.705 83.9024 115.909 84.5153 116.73 84.4131C117.551 84.3109 118.572 84.9239 118.572 85.5404C118.572 86.1533 118.061 87.1456 117.106 87.6892C116.536 88.0139 117.343 89.9402 116.117 90.5568C114.891 91.1733 112.228 90.1481 111.203 89.8417C110.178 89.5352 109.769 89.6374 109.258 88.6122C108.747 87.5871 106.664 85.6754 107.689 84.9603C107.945 84.7816 108.182 83.6652 109.192 83.8695C109.535 83.9388 109.944 83.7345 110.218 82.7094C110.364 82.1658 109.98 80.1775 110.353 79.7725C110.688 79.4114 112.25 78.8167 112.538 78.4774C113.49 77.3428 114.147 77.361 113.902 76.9743C113.6 76.5001 113.724 75.9565 112.947 75.9492C111.874 75.9382 110.717 75.8251 110.148 75.6756C109.506 75.5078 108.715 75.9602 108.237 75.8105C107.343 75.5333 106.923 74.7197 106.256 74.8547C105.829 74.9386 105.333 75.5442 104.687 76.2885C104.18 76.8722 102.819 76.0769 102.436 76.5621C102.133 76.9415 102.607 78.7036 102.505 78.7802C102.097 79.0867 100.356 78.9845 100.356 78.9845L98.6016 78.1673Z" fill="#090104"/>
<path d="M53.4824 52.0745C53.4824 52.0745 55.5291 54.7378 57.2693 55.555C59.0095 56.3758 59.5203 56.5801 60.7498 56.5801C61.9792 56.5801 63.7194 57.0909 63.6173 56.1715C63.5151 55.2485 62.0814 54.942 62.1835 53.9205C62.2857 52.8954 62.2857 52.1803 63.1065 52.1803C63.9274 52.1803 65.2553 52.8954 65.5654 52.8954C65.8718 52.8954 66.5906 51.1551 68.0244 51.2573C69.4581 51.3594 69.7645 51.8702 70.7897 52.7932C71.8148 53.7162 71.6105 54.4313 72.9385 54.3291C74.2701 54.227 74.6787 53.9205 75.806 54.0227C76.9333 54.1248 77.7506 54.0226 77.5463 54.7378C77.3419 55.4528 76.9333 55.7629 76.3168 55.7629C75.7002 55.7629 73.5514 55.3543 73.3471 55.7629C73.1428 56.1715 72.7342 57.0945 72.0155 56.8902C71.3004 56.6859 71.0925 55.7629 70.1731 55.5586C69.2502 55.3543 68.7394 54.6356 68.2287 54.6356C67.7179 54.6356 67.3056 54.3291 67.4078 55.3506C67.5099 56.3758 67.9186 57.2952 68.4329 57.2952C68.9437 57.2952 69.5603 57.193 70.1731 57.6016C70.7861 58.0102 72.2198 58.0102 72.5262 57.9081C72.8327 57.8059 74.1643 56.4743 75.7002 56.9851C77.2362 57.4958 79.0785 58.7252 79.7972 58.6231C80.5123 58.521 81.6396 57.3936 82.3583 56.9851C83.077 56.5765 84.5071 57.1893 84.8172 56.4743C85.1236 55.7593 87.0682 55.4492 87.4804 56.6786C87.8927 57.9081 86.5574 58.521 86.251 58.9296C85.9445 59.3382 85.5359 60.159 85.1236 60.6698C84.7114 61.1805 83.1791 61.2827 82.4604 61.4906C81.7418 61.6986 81.8476 63.1287 80.3116 62.7201C78.7757 62.3115 77.5463 61.3885 76.5248 61.2863C75.4996 61.1842 74.6131 62.1401 74.1023 62.4465C73.5916 62.7529 72.0557 63.8474 70.8262 63.5738C69.9214 63.3731 68.743 62.5158 68.6409 63.0265C68.5388 63.5373 65.1604 70.126 65.1604 70.126C65.1604 70.126 63.6245 69.7831 63.5224 68.7616C63.4202 67.7364 66.0835 62.5158 66.1856 61.4906C66.2878 60.4655 65.4013 60.7756 64.0697 60.7756C62.738 60.7756 61.2386 60.8084 60.1113 60.2977C58.984 59.7869 58.3018 58.4188 57.6889 58.4188C57.0759 58.4188 54.1063 58.4188 54.1063 58.4188L53.4824 52.0745Z" fill="#090104"/>
<path d="M16.2402 48.9044C15.8645 48.5578 16.0907 47.9376 16.6014 47.9047C17.2654 47.8646 18.2869 47.9521 19.7973 48.4119C23.1756 49.437 23.482 48.3097 23.7921 47.591C24.0985 46.8759 25.2259 46.055 26.251 46.4637C27.2762 46.8723 27.787 45.9529 27.8891 45.3364C27.9913 44.7234 28.7099 44.0048 29.5272 44.5155C30.348 45.0263 31.4717 48.6125 32.8033 48.4045C34.1349 48.2002 33.7263 45.9456 35.0542 45.1284C36.3858 44.3076 37.7175 44.1032 37.9217 43.3882C38.1261 42.6731 40.2749 40.5207 41.6065 41.1372C42.9381 41.7501 40.7856 43.0817 40.9936 44.209C41.1979 45.3364 42.4274 47.383 43.759 47.4852C45.0906 47.5873 45.397 46.9744 45.7035 46.5622C46.0099 46.1536 47.648 47.383 48.2646 46.6643C48.8774 45.9493 49.1875 44.2054 50.4133 44.6177C51.6428 45.0263 53.1787 46.6643 53.5874 48.9189C53.996 51.1736 54.6125 53.4245 54.6125 53.4245L50.5155 54.4497L48.9796 53.3224C48.9796 53.3224 47.2394 54.3475 45.0906 53.9353C42.9418 53.5267 40.9936 51.5822 40.6871 51.4764C40.3807 51.3742 38.6405 51.3742 39.0491 52.5015C39.4577 53.6288 38.7426 54.5482 38.334 54.8546C37.9254 55.1611 35.8751 55.6755 35.2622 55.2632C34.6493 54.851 33.2155 53.523 33.0112 54.0338C32.8069 54.5445 32.8069 55.3654 31.9861 55.3654C31.1652 55.3654 29.1186 55.0589 28.4035 54.0338C27.6884 53.0086 26.7655 50.962 25.4338 50.7577C24.1022 50.5533 23.3871 52.6 21.439 52.0893C19.4945 51.5785 18.7758 50.962 18.1629 50.5534C17.7871 50.3126 16.8896 49.5026 16.2402 48.9044Z" fill="#090104"/>
<path d="M53.0029 76.9375C53.0029 76.9375 54.506 76.9375 55.4618 77.6197C56.4176 78.302 59.2852 78.0284 59.2852 76.9375C59.2852 75.8467 60.1061 75.1645 58.738 74.6172C57.3735 74.07 56.144 73.5264 56.4177 72.5705C56.6913 71.6147 54.7796 70.3852 54.7796 70.3852L56.5527 69.703C56.5527 69.703 56.8263 70.1116 57.7821 70.7939C58.738 71.4761 58.603 72.7056 59.4202 73.1141C60.2374 73.5227 62.0141 74.4786 62.9699 75.708C63.9258 76.9375 63.9258 78.5756 64.0608 79.6664C64.1957 80.7572 62.9699 81.4395 62.1491 81.8517C61.3282 82.264 58.8729 81.8517 58.8729 81.8517C58.8729 81.8517 57.3699 81.9867 56.9613 82.3989C56.5527 82.8112 54.7759 84.5842 54.3674 84.4456C53.9588 84.307 49.7268 84.037 49.7268 84.037L47.8151 85.1278C47.8151 85.1278 46.4507 89.3598 45.0862 89.6334C43.7218 89.907 41.6751 89.2248 40.8543 88.8125C40.0334 88.4003 39.5883 88.2471 40.0334 87.3095C40.7849 85.7407 42.2187 86.6272 42.2187 86.6272C42.2187 86.6272 42.6273 84.9892 42.9009 84.5806C43.1745 84.172 43.3095 82.2603 42.4923 82.3953C41.6715 82.5302 41.8101 83.7597 41.1279 84.0333C40.4457 84.307 38.9426 84.4419 38.534 84.5806C38.1253 84.7156 37.4431 84.5806 37.3045 84.9892C37.1659 85.3978 37.538 87.2365 36.2137 87.9917C34.302 89.0825 30.4129 87.9224 30.4129 87.9224L26.9326 89.0132C26.9326 89.0132 25.0209 89.2175 23.1092 87.5794C21.1975 85.9414 20.1724 84.4383 19.1508 84.5076C16.9035 84.6572 17.2392 87.3751 15.0538 88.0574C12.8685 88.7396 10.9569 88.6703 10.8219 88.1267C10.6869 87.5794 12.5949 86.3536 11.9127 85.8064C11.2305 85.2592 10.001 85.1242 9.04519 84.8505C8.08934 84.5769 4.67824 83.7597 4.94821 82.5302C5.22183 81.3008 6.45128 80.21 5.76906 79.6627C5.08684 79.1155 3.44878 77.8897 4.5396 77.751C5.63043 77.6161 8.08934 77.6161 8.49795 78.4333C8.90656 79.2505 8.08934 80.7536 8.77157 81.3008C9.45379 81.848 12.5949 82.8039 13.1385 82.3916C13.6821 81.9794 12.6935 80.4617 13.7879 80.0531C14.8788 79.6445 16.5533 80.7536 17.3705 80.345C18.1913 79.9364 17.2684 76.9484 18.9064 76.2662C20.5444 75.584 22.7298 74.7814 23.412 75.6022C24.0942 76.4231 23.2588 78.623 24.7436 79.5278C25.4039 79.9291 26.119 78.1633 26.108 77.7547C26.0752 76.4231 28.1219 76.5763 28.1219 76.5763C28.1219 76.5763 29.0449 74.5297 30.2707 74.9383C31.4965 75.3468 32.8318 76.4742 32.9339 77.6161C32.9741 78.0465 32.3356 78.8455 33.2914 79.3891C34.2473 79.9364 35.9802 78.9002 36.9251 80.002C38.461 81.7933 40.577 79.6591 40.577 78.7069C40.577 77.751 41.2592 75.2958 42.6237 75.7044C43.9881 76.113 45.0826 76.5252 45.6262 77.751C46.1697 78.9769 46.582 80.0714 47.8115 79.7978C49.0409 79.5241 50.679 78.9768 50.814 78.5683C50.9563 78.167 53.0029 76.9375 53.0029 76.9375Z" fill="#090104"/>
<path d="M50.4781 103.008L34.1631 88.2982L34.641 87.8202L35.3232 88.2982L50.4452 101.06L50.4781 103.008Z" fill="#048410"/>
<path d="M49.8276 54.5217L50.1341 61.6905C50.1341 61.6905 53.2059 62.3727 53.0709 63.3286C52.9359 64.2844 53.8918 65.1709 54.3661 65.3752C54.844 65.5795 55.1176 66.0574 55.3219 66.4004C55.5262 66.7433 56.2084 67.1519 56.2084 67.1519L56.0041 65.2402L60.714 59.9174L55.2526 63.1936L55.3876 57.5972L53.6802 54.0474L52.998 53.0916L49.8276 54.5217Z" fill="#090104"/>
<path d="M62.2887 81.728C62.2887 81.728 62.2887 85.1391 62.7666 85.5513C63.2445 85.9599 63.7224 85.6863 64.3353 86.2336C64.9482 86.7808 65.9041 87.463 66.3163 87.5287C66.7286 87.5943 68.6366 88.2109 68.9796 87.5287C69.3225 86.8464 69.1145 86.0256 69.6618 85.8906C70.209 85.7556 70.5483 84.7998 71.5735 84.8655C72.5986 84.9348 73.4851 85.6863 74.3717 85.4783C75.2582 85.2704 75.4625 84.0446 76.2833 83.9753C77.1042 83.906 77.5784 83.906 78.2643 84.5882C78.9465 85.2704 79.6288 85.9526 79.9024 86.0913C80.176 86.2299 80.9276 85.887 81.1975 86.5692C81.4712 87.2514 81.5405 88.003 82.084 87.9336C82.6313 87.8643 83.5178 86.7735 83.5178 86.7735C83.5178 86.7735 83.9957 85.6827 85.0209 86.0913C86.0461 86.4998 86.2504 87.0471 86.7283 87.3207C87.2062 87.5943 88.2314 87.4557 88.2314 87.4557L88.505 86.1606C88.505 86.1606 89.3259 85.409 89.8001 85.4783C90.278 85.5477 91.7118 86.9121 91.5732 87.4594C91.4382 88.0066 90.891 90.0532 90.891 90.0532C90.891 90.0532 90.2087 89.9839 90.2087 90.7355C90.2087 91.487 90.9602 92.0306 90.3437 92.4428C89.7308 92.8515 88.0234 93.603 87.6148 93.6723C87.2062 93.7416 84.9516 92.9901 84.8166 93.3294C84.6816 93.6686 84.6123 94.0116 84.8166 94.3545C85.0209 94.6975 86.2504 96.4705 86.2504 96.4705L90.0044 99.473L85.9074 101.691L75.3275 92.7493L65.1562 100.976L64.474 96.8791C64.474 96.8791 62.8359 96.0583 62.7666 94.8981C62.6973 93.738 62.8359 92.8515 63.5181 92.5779C64.2004 92.3042 64.9519 91.8956 64.9519 91.487C64.9519 91.0784 65.0869 90.2575 64.609 90.4619C64.131 90.6662 63.9961 91.0747 63.7224 91.2827C63.4488 91.487 61.4715 91.6256 61.4022 91.352C61.3328 91.0784 61.4022 90.1226 60.7199 90.0569C60.0377 89.9876 59.4248 90.1262 59.4248 89.3747C59.4248 88.6232 59.7677 87.6016 60.107 87.463C60.45 87.328 60.8586 87.5323 60.8586 86.9158C60.8586 86.2992 60.3113 84.7304 60.3113 83.5046C60.3113 82.2788 60.3113 80.5678 60.3113 80.5678L61.3365 79.8856L62.2887 81.728Z" fill="#090104"/>
<path d="M94.4595 109.105C95.0395 109.481 101.194 114.713 101.194 114.713L101.741 87.4784V81.1305C101.741 81.1305 103.562 80.8095 103.514 80.2768C103.445 79.4559 101.468 77.5114 101.468 77.5114L98.8739 77.2378C98.8739 77.2378 96.9293 75.9062 97.0315 77.3399C97.1336 78.7737 96.4186 81.1268 96.5207 80.7182C96.6229 80.3096 95.8567 80.4118 95.8567 80.4118L94.6784 103.45L94.4595 109.105Z" fill="#090104"/>
<path d="M97.8863 73.8967C97.8863 73.8967 94.063 73.6924 94.1651 74.8197C94.2673 75.947 94.8802 76.3557 94.778 76.6621C94.6759 76.9686 93.3443 77.6873 93.855 78.198C94.3658 78.7088 97.5397 79.9382 97.5397 79.9382L99.9987 76.8664L97.8863 73.8967Z" fill="#090104"/>
<path d="M96.6893 36.15C96.6893 36.15 96.8936 34.8184 95.8684 34.5119C94.8433 34.2054 95.0476 34.9206 94.2304 34.5119C93.4095 34.1033 93.8218 33.3846 93.2052 32.976C92.5887 32.5674 91.7714 31.1337 91.465 31.9509C91.1586 32.7717 91.6693 33.6911 91.3629 33.9975C91.0564 34.304 89.6227 34.2018 89.214 33.9975C88.8055 33.7932 87.3717 33.2825 87.6781 34.0997C87.9846 34.9169 88.1889 35.3291 89.214 35.4313C90.2392 35.5334 90.8521 36.3543 90.8521 36.3543C90.8521 36.3543 90.9543 37.0694 91.7751 37.9923C92.596 38.9154 93.6175 37.9923 94.0261 38.5031C94.4347 39.0139 94.7411 40.6519 94.7411 40.6519C94.7411 40.6519 94.5368 41.2649 93.8182 40.9584C93.1031 40.6519 92.793 39.9333 91.8736 39.8311C90.9506 39.7289 90.8485 38.193 90.1334 37.8865C89.4183 37.5801 88.8018 37.6822 89.0061 38.3973C89.2104 39.1124 90.1334 39.8311 89.619 39.7289C89.1046 39.6268 87.368 38.6016 86.9558 38.193C86.5435 37.7844 86.0328 36.5549 84.4969 36.8614C82.961 37.1679 82.7567 37.27 82.6545 37.7844C82.5524 38.2988 81.2208 37.6822 81.1186 38.6053C81.0164 39.5282 81.6294 41.6771 82.3481 42.1878C83.0668 42.6986 84.9091 43.213 85.9306 43.213C86.9558 43.213 88.2837 42.29 88.7981 43.0087C89.3126 43.7274 89.3089 44.851 88.7981 45.0553C88.2874 45.2597 87.2622 45.3618 87.4665 46.2848C87.6709 47.2078 88.0795 48.1272 88.0795 48.1272C88.0795 48.1272 87.5687 49.7652 87.6709 50.276C87.773 50.7868 87.8752 51.9141 88.4917 51.8119C89.1046 51.7098 91.0528 50.8889 91.4614 49.9695C91.87 49.0502 91.4614 48.1272 92.4866 47.9229C93.5117 47.7186 95.4562 48.2293 95.5583 47.4121C95.6605 46.5949 95.8648 44.851 95.7626 44.2382C95.6605 43.6252 95.1498 43.213 95.7626 42.6001C96.3756 41.9872 96.6857 41.575 96.5835 40.8599C96.4814 40.1448 97.0614 39.0175 97.1636 38.401C97.2694 37.7881 96.6893 36.15 96.6893 36.15Z" fill="#090104"/>
<path d="M98.9741 30.1497L99.4885 39.1609L96.4167 41.514L95.4937 31.3792L98.9741 30.1497Z" fill="#090104"/>
<path d="M21.675 30.3725C21.675 30.3725 22.4958 32.3535 23.448 32.7621C24.4039 33.1707 28.1579 30.7811 28.2929 32.2842C28.4279 33.7873 30.2046 33.8894 31.1239 35.5603C31.6821 36.5745 29.723 37.5413 29.0408 37.9499C28.7052 38.1506 27.9974 38.187 27.3736 38.1724C26.7388 38.1579 26.1696 38.5044 25.8085 39.0261C25.7647 39.0918 25.7136 39.1429 25.6625 39.1794C25.3561 39.3837 24.3309 38.8729 24.3309 38.8729C24.3309 38.8729 25.5604 37.472 25.2174 36.5198C24.8745 35.5639 22.1456 35.086 21.3612 33.8566C20.5769 32.6271 19.8946 32.4228 20.1318 31.1933C20.2303 30.7264 21.675 30.3725 21.675 30.3725Z" fill="#090104"/>
<path d="M34.2749 37.4015C33.9137 37.4307 33.5817 37.2045 33.4723 36.8579C33.4029 36.639 33.3263 36.3945 33.2534 36.1939C33.0746 35.6904 32.4982 34.793 32.8958 34.5412C33.2899 34.2895 33.9392 34.9717 34.6215 35.2235C35.3037 35.4752 36.2376 35.7634 36.3799 35.8327C36.5222 35.902 36.9199 36.0115 36.8104 36.442C36.701 36.8725 35.6247 37.1972 35.4095 37.2665C35.2854 37.3139 34.7273 37.365 34.2749 37.4015Z" fill="#090104"/>
<path d="M31.0882 91.4116L29.0415 86.906L31.3983 86.2894L33.9557 87.9275L35.9002 91.2073L31.0882 91.4116Z" fill="#090104"/>
<path d="M77.5425 92.4568L50.0347 114.354L50.1368 107.699L60.4176 102.997L77.5388 90.7457L78.0204 92.5042L77.5425 92.4568Z" fill="#090104"/>
<path d="M63.5122 68.7415C63.5122 68.7415 65.4932 70.8247 66.6169 71.5398C67.7442 72.2548 68.8678 73.3821 68.97 73.9987C69.0721 74.6152 69.0721 77.0705 71.6332 77.377C74.1943 77.6834 75.1136 73.4879 75.1136 73.0757C75.1136 72.6634 74.0885 73.8965 73.6799 74.1008C73.2713 74.3051 72.1439 74.7137 71.8375 72.8714C71.5311 71.029 71.1991 71.2844 70.2761 71.2844C69.3531 71.2844 70.028 70.3796 68.6635 69.7995C67.2991 69.2194 66.4126 69.2888 66.0003 69.1867C65.5917 69.0845 64.7708 68.5737 64.7708 68.5737L63.5122 68.7415Z" fill="#090104"/>
</svg>
