<svg width="180" height="90" viewBox="0 0 180 90" fill="none" xmlns="http://www.w3.org/2000/svg">
<g id="Frame 1">
<g id="Mask group">
<g id="g3138">
<g id="g3136">
<path id="path3134" d="M85.4506 53.4766H82.7769V68.4171H85.4506V53.4766Z" fill="white"/>
</g>
</g>
<g id="g3144">
<g id="g3142">
<path id="path3140" d="M97.3701 53.4766V62.8409L92.2404 53.4784H92.2386V53.4766H89.563V68.4171H92.2386V59.0396L97.3701 68.4058V68.4171H100.046V53.4766H97.3701Z" fill="white"/>
</g>
</g>
<g id="g3150">
<g id="g3148">
<path id="path3146" d="M111.893 55.9572V53.4843H106.728V53.4806H104.015V68.4211H104.023V68.4492H111.893V65.9745H106.728V59.9086H109.998V57.9404H106.728V55.9572H111.893Z" fill="white"/>
</g>
</g>
<g id="g3156">
<g id="g3154">
<path id="path3152" d="M139.25 68.9336C135.102 68.9336 131.727 65.3781 131.727 61.0065C131.727 56.6348 135.102 53.0794 139.25 53.0794C143.399 53.0794 146.774 56.6348 146.774 61.0065C146.774 65.3781 143.399 68.9336 139.25 68.9336ZM139.25 55.8956C136.656 55.8956 134.543 58.1884 134.543 61.0065C134.543 63.8246 136.656 66.1174 139.25 66.1174C141.845 66.1174 143.958 63.8246 143.958 61.0065C143.958 58.1884 141.845 55.8956 139.25 55.8956Z" fill="white"/>
</g>
</g>
<g id="g3162">
<g id="g3160">
<path id="path3158" d="M156.237 68.9336C152.088 68.9336 148.713 65.3781 148.713 61.0065C148.713 56.6348 152.088 53.0794 156.237 53.0794C160.385 53.0794 163.76 56.6348 163.76 61.0065C163.76 65.3781 160.387 68.9336 156.237 68.9336ZM156.237 55.8956C153.642 55.8956 151.529 58.1884 151.529 61.0065C151.529 63.8246 153.64 66.1174 156.237 66.1174C158.833 66.1174 160.944 63.8246 160.944 61.0065C160.944 58.1884 158.833 55.8956 156.237 55.8956Z" fill="white"/>
</g>
</g>
<g id="g3168">
<g id="g3166">
<path id="path3164" d="M128.257 53.1413L125.965 62.6876L124.096 54.9144L123.67 53.1413H121.732L121.308 54.9144L119.43 62.7289L117.126 53.1413H114.338L118.023 68.4814H118.047H120.811H120.837L122.702 60.7175L124.567 68.4814H124.573H127.355H127.361L131.046 53.1413H128.257Z" fill="white"/>
</g>
</g>
<g id="g3174">
<g id="g3172">
<path id="path3170" d="M73.7299 53.4766C73.4091 53.4766 73.0601 53.4766 72.7036 53.4766H70.9231V68.4171H73.3978V64.9235C73.5085 64.9235 73.6192 64.9216 73.7299 64.9216C77.1803 64.9216 79.9778 62.3512 79.9778 59.1822C79.9778 56.0132 77.1822 53.4766 73.7299 53.4766ZM73.5536 62.4506C73.501 62.4506 73.4504 62.4468 73.3978 62.445V55.8143C73.4504 55.8125 73.501 55.8087 73.5536 55.8087C75.5818 55.8087 77.2254 57.2947 77.2254 59.1297C77.2254 60.9646 75.5818 62.4506 73.5536 62.4506Z" fill="white"/>
</g>
</g>
<g id="g3180">
<g id="g3178">
<path id="path3176" d="M168.851 53.4634C168.804 53.4634 168.757 53.4653 168.71 53.4653V53.4634H165.999V68.4039H167.909C168.231 68.4114 168.558 68.4171 168.894 68.4171C173.41 68.4171 176.849 65.098 176.849 60.9496C176.849 56.8012 173.367 53.4634 168.851 53.4634ZM168.712 65.7922L168.706 55.9025C169.044 55.8894 169.404 55.8894 169.753 55.9532C172.344 56.4354 174.059 58.4354 174.059 60.8802C174.059 63.2818 172.504 65.2425 170.008 65.7415C169.567 65.8297 169.23 65.8185 168.712 65.7922Z" fill="white"/>
</g>
</g>
<g id="g3186">
<g id="g3184">
<path id="path3182" d="M138.01 86.4426C137.909 85.5045 137.453 84.7146 136.869 84.1086C136.002 83.208 134.813 82.724 134.466 82.4781C134.364 82.4069 134.288 82.3881 134.225 82.2887C134.211 82.2661 134.481 81.7164 134.633 81.495C135.019 80.9359 135.151 80.6263 135.162 80.313C135.181 79.7351 134.663 79.069 133.603 78.994C132.559 78.9189 131.443 79.1553 130.921 79.9396C130.7 80.2717 130.659 80.5137 130.612 80.8102C130.533 81.3167 130.631 81.996 131.4 82.7952C130.822 83.3619 129.67 84.4876 129.066 85.0167C128.451 85.5552 127.957 85.8122 127.055 85.8385C126.152 85.8629 125.818 85.3657 125.818 85.3657C125.818 85.3657 127.616 84.1293 128.518 82.8215C128.828 82.3731 129.141 81.9566 129.156 81.4969C129.173 80.9471 129.04 80.2829 128.383 79.7238C127.426 78.9077 125.734 79.0202 124.344 79.8927C123.745 80.2661 123.28 80.9002 122.97 81.5719C122.561 82.465 122.328 83.5007 122.777 85.0805C122.818 85.2287 122.865 85.3676 122.914 85.5008C122.625 85.7109 122.237 85.9661 121.951 86.0637C121.435 86.2381 121.242 86.4502 120.784 85.6959C120.572 85.3038 119.625 83.4932 119.199 82.0372C118.773 80.5813 118.659 79.9096 118.6 79.63C118.542 79.3505 117.827 79.4987 117.343 79.555C116.859 79.6113 116.414 80.6563 115.797 81.9059C115.24 83.0335 114.195 84.7522 113.994 85.0786C113.893 84.9173 113.773 84.7109 113.632 84.4445C113.129 83.4932 112.414 80.6376 112.182 80.2267C111.949 79.8158 111.756 79.8908 111.253 79.8908C110.75 79.8908 110.41 80.4199 109.514 81.4031C108.611 82.3918 107.879 83.3956 107.677 83.587C107.758 82.7558 107.825 82.0297 107.825 81.7577C107.825 81.0616 107.902 80.5625 107.568 80.2886C107.232 80.0147 106.331 80.313 104.99 81.2849C104.287 81.7952 103.613 82.3449 103.129 82.7521C103.061 81.465 102.519 80.3786 101.896 79.9659C101.277 79.555 99.8905 79.7201 99.0874 79.9903C98.0799 80.328 96.5864 81.3599 95.4794 82.6789C95.1004 83.0373 93.9803 84.0054 93.0309 84.7691C91.7945 85.7653 91.2785 86.088 91.0852 85.876C90.9708 85.7503 90.9145 85.4989 90.8882 85.3038C90.8432 84.4745 90.8395 83.2512 90.8395 82.5776C90.8395 81.5569 91.149 80.4875 90.1959 80.3374C89.3535 80.206 87.9801 81.1329 86.845 81.7802C86.192 82.1536 85.3252 82.7971 84.7079 83.2774C85.0588 82.3918 85.7586 80.934 86.1132 80.206C86.2352 80.1704 86.359 80.1366 86.481 80.101C87.541 79.7857 88.6011 79.4649 89.6537 79.099C90.1809 78.9189 90.71 78.7275 91.2429 78.5212C91.5149 78.4067 91.7757 78.3035 92.0684 78.1591C92.2166 78.0915 92.3442 78.0221 92.4737 77.9527C92.605 77.8814 92.7345 77.8082 92.8639 77.7331C93.3818 77.4255 93.8977 77.084 94.378 76.6261C94.6182 76.3991 94.8508 76.1402 95.061 75.8325C95.2674 75.5248 95.4531 75.1589 95.5432 74.7255C95.6389 74.2977 95.6089 73.8099 95.4663 73.3915C95.4344 73.2902 95.3856 73.1795 95.3349 73.0707C95.2786 72.9637 95.2186 72.8587 95.1473 72.7611C95.0085 72.5641 94.8396 72.3896 94.6538 72.2433C94.2824 71.9524 93.8583 71.7798 93.455 71.6935C93.0497 71.6072 92.6613 71.596 92.2973 71.6297C91.5674 71.6954 90.9314 71.9205 90.3554 72.1907C89.7794 72.4647 89.2634 72.7968 88.7869 73.1551C88.6686 73.2452 88.5523 73.3371 88.4322 73.4403C88.3103 73.5397 88.1977 73.6429 88.087 73.748C87.8637 73.9562 87.6592 74.1739 87.4622 74.3953C87.0701 74.8381 86.7305 75.3015 86.4172 75.7744C85.8299 76.6637 85.3383 77.5849 84.903 78.5193C82.8973 79.069 81.2275 79.4949 79.4694 80.039C77.3005 80.6601 75.3004 81.7295 73.4636 82.9998C72.6062 83.5983 71.8632 84.3281 71.1371 85.0617C71.0789 85.1368 70.7712 85.5608 71.017 85.6096C71.1915 85.6434 71.3941 85.5383 71.5498 85.4295C71.5967 85.3938 71.6418 85.3582 71.6887 85.3225C71.7487 85.2719 71.7862 85.2343 71.7862 85.2343L71.7656 85.2663C72.4861 84.7334 73.2478 84.2587 74.034 83.8347C74.974 83.3337 75.9928 82.9003 76.9966 82.5513C78.0022 82.2005 79.0623 81.8646 80.1149 81.6545C81.2856 81.4181 82.357 81.2079 83.5052 80.9134C83.3026 81.3093 83.0681 81.8046 82.8204 82.4012C82.0981 84.1424 80.6046 88.075 80.4488 88.8217C80.295 89.5685 80.9123 89.4184 80.9123 89.4184C80.9123 89.4184 82.2013 88.97 82.6647 88.6716C83.0587 88.4183 83.1731 88.0393 83.1994 87.9305C83.1994 87.9305 83.6966 86.8385 84.5334 85.5796C85.0832 84.7503 85.7961 83.9998 86.2671 83.6564C87.3947 82.8346 87.89 82.8103 87.89 83.3581C87.89 83.906 87.8956 86.1087 87.9219 86.5552C87.9444 86.9586 88.0326 88.1087 88.6161 88.4765C88.6274 88.484 88.6368 88.4896 88.648 88.4971C88.6668 88.5084 88.6874 88.5197 88.708 88.529C89.042 88.6866 89.6987 88.7185 90.8845 87.8742C92.2391 86.9117 93.5975 85.5852 94.3518 84.831C94.1829 85.5345 94.0103 86.3001 94.1979 86.9398C94.4568 87.8273 95.1267 88.5816 96.5564 88.7129C98.2394 88.8668 99.579 88.3677 100.603 87.6735C101.628 86.9793 102.286 85.9623 102.665 85.148C102.673 85.1312 102.68 85.1143 102.688 85.0955C102.891 84.8872 103.193 84.5308 103.438 84.0392C103.851 83.2174 104.624 82.5457 105.061 82.3224C105.5 82.0992 105.551 82.2474 105.551 83.0936C105.551 83.9397 104.919 87.2382 104.919 87.2382L104.757 87.878C104.662 88.2345 104.846 88.439 105.142 88.4727C105.268 88.4859 105.418 88.4953 105.602 88.4953C106.401 88.4953 106.994 88.287 107.045 88.1969C107.099 88.0994 107.152 87.8911 107.198 87.651C107.369 87.1932 107.696 86.3676 108.075 85.634C108.635 84.5514 109.737 83.1892 109.737 83.1892C109.737 83.1892 109.988 84.103 110.587 85.2794C111.185 86.4558 111.902 87.5196 112.21 87.9305C112.489 88.302 112.973 88.3827 113.064 88.3958C113.48 88.4577 113.739 88.242 114.394 87.4089C115.186 86.4014 116.675 83.9379 116.675 83.9379C116.675 83.9379 118.068 87.0205 118.473 87.5027C118.473 87.5027 118.808 88.2983 119.788 88.1744C120.685 88.06 122.745 86.6734 123.278 86.2794C124.09 87.6416 125.565 87.9662 126.188 87.9493C127.116 87.9249 128.334 87.377 129.081 86.7541C129.828 86.1312 131.529 84.4388 132.019 83.8666C132.12 83.7465 132.214 83.6377 132.297 83.5401C133.52 84.3957 134.622 84.8028 135.331 85.7278C136.104 86.7353 135.35 87.9305 134.46 88.0975C133.571 88.2664 132.875 87.4446 132.586 87.1087C132.441 86.9417 132.297 86.756 132.055 86.4652C132.008 86.4108 131.914 86.2719 131.764 86.362C131.672 86.4183 131.473 86.679 131.44 86.816C131.413 86.9155 131.428 87.0956 131.537 87.5121C131.773 88.4221 132.665 90 134.308 90C135.488 90 136.329 89.7092 137.014 89.1219C137.71 88.544 138.136 87.6097 138.01 86.4426ZM87.9407 76.7894C88.254 76.3897 88.5823 76.0089 88.9257 75.6618C89.1002 75.491 89.2747 75.3241 89.4586 75.174C89.5486 75.0989 89.6405 75.0238 89.7344 74.9563C89.8244 74.8869 89.9257 74.8174 90.027 74.748C90.4286 74.4703 90.847 74.2302 91.2672 74.0501C91.6856 73.8718 92.1115 73.7574 92.4793 73.7349C92.8508 73.7049 93.1379 73.8043 93.2373 73.9C93.2636 73.9244 93.2823 73.9469 93.2955 73.9694C93.303 73.9807 93.3067 73.9938 93.3142 74.0051C93.318 74.0182 93.3236 74.0294 93.3311 74.0557C93.3555 74.142 93.3611 74.2021 93.3405 74.294C93.3105 74.4722 93.1078 74.7837 92.7983 75.0651C92.4906 75.3503 92.1041 75.628 91.6875 75.8776C91.5825 75.9395 91.4755 76.0014 91.3686 76.0614C91.2598 76.1214 91.1472 76.1815 91.0459 76.2284C90.8507 76.3279 90.6031 76.4291 90.3723 76.5305C89.8901 76.7293 89.3948 76.9263 88.8901 77.1121C88.3591 77.3072 87.8262 77.5024 87.2896 77.6937C87.4998 77.3823 87.7155 77.0802 87.9407 76.7894ZM99.3989 86.437C98.4964 86.8817 97.7872 86.9605 97.3557 86.6678C97.0029 86.4277 96.6858 85.2156 96.9504 84.0486C97.1286 83.2568 97.6408 82.5926 98.1605 82.1536C98.1493 82.632 98.4176 83.2568 99.14 83.6508C99.8642 84.0448 100.911 83.9998 101.438 83.9454C101.138 85.1724 100.279 86.0017 99.3989 86.437ZM100.971 82.9528C100.185 82.874 99.7084 82.405 99.5527 81.9078C99.3989 81.4106 99.913 81.435 99.913 81.435L99.9167 81.4312C100.628 81.3881 101.382 81.6432 101.512 82.769C101.521 82.8459 101.525 82.9228 101.528 82.9998C101.361 82.9866 101.172 82.9716 100.971 82.9528ZM124.942 82.3731C124.844 81.1779 125.193 80.4875 125.754 80.4875C126.315 80.4875 126.901 81.086 127.012 82.0748C127.115 82.9979 126.4 83.739 126.053 84.0392C125.948 84.1311 125.786 84.1236 125.687 84.0242C125.445 83.7859 125.008 83.1968 124.942 82.3731ZM132.984 81.4406C132.984 81.4406 132.286 81.0991 132.327 80.6751C132.366 80.2642 132.888 80.1347 133.119 80.5062C133.35 80.8796 132.984 81.4406 132.984 81.4406Z" fill="#048410"/>
</g>
</g>
<g id="g3192">
<g id="g3190">
<path id="path3188" d="M25.2067 14.2947C25.2067 14.2947 25.6288 13.5574 25.2592 13.2947C24.8915 13.032 24.4693 13.3998 24.3117 13.032C24.1541 12.6643 24.3117 11.9795 24.3117 11.9795C24.3117 11.9795 23.3642 11.5573 22.8895 11.2946C22.4148 11.032 21.8369 10.5047 21.7844 10.2421C21.7319 9.97939 21.0996 9.71485 20.4673 9.92685C19.835 10.1389 18.835 10.4541 18.0976 9.76924C17.3602 9.08441 17.045 8.97935 17.3602 8.55906C17.6754 8.13691 17.94 7.61156 18.4653 7.61156C18.9907 7.61156 19.7299 7.76917 19.835 7.5065C19.9401 7.24382 20.5198 6.61154 21.0996 7.13876C21.6793 7.66598 22.3097 7.71852 22.3097 7.71852C22.3097 7.71852 23.3623 6.9286 23.837 7.19128C24.3117 7.45395 24.0471 7.82359 24.7845 7.9812C25.5219 8.13878 25.732 8.13878 25.6795 7.82359C25.6269 7.50837 24.1522 7.24382 24.0997 6.24378C24.0472 5.24376 24.5218 4.40132 24.7845 4.08423C25.0472 3.76904 25.9947 3.66208 26.2592 3.29434C26.5219 2.9266 26.2067 2.24178 26.4694 1.92469C26.7321 1.60947 27.1542 1.44999 27.1542 1.44999C27.1542 1.44999 26.839 -0.234858 27.2067 0.0278149C27.5745 0.290489 27.6814 0.343004 27.839 0.922768C27.9967 1.50253 28.1017 1.81772 28.5239 1.92282C28.946 2.02788 29.4188 2.45003 29.4714 2.76522C29.5239 3.08044 29.629 3.55515 29.629 3.55515C29.629 3.55515 30.6815 3.5026 30.7866 4.50265C30.8917 5.50266 30.9967 5.81975 31.3664 5.97736C31.7341 6.13497 32.2613 6.08243 32.6835 6.13497C33.1056 6.18749 33.7886 6.45016 33.8937 6.76725C33.9987 7.08247 33.8242 7.92491 34.5597 7.92491C35.2971 7.92491 35.8581 7.85547 36.0701 7.74854C36.2822 7.64157 37.5805 7.39766 37.8957 7.97743C38.211 8.55719 39.0363 9.55724 38.3516 10.0319C37.6669 10.5066 36.9818 9.82178 36.3854 9.85557C35.9013 9.88371 35.2445 9.52159 34.8749 9.89119C34.5053 10.2608 34.6292 10.5047 34.7342 10.8218C34.8393 11.137 34.5766 12.032 34.3121 12.0864C34.0494 12.1389 33.6272 12.5611 33.6798 12.7187C33.7323 12.8763 33.5747 13.1934 34.2595 13.456C34.9443 13.7187 36.0495 13.8782 36.4715 14.0884C36.8938 14.2985 37.4193 15.1935 37.9989 15.1935C38.5785 15.1935 39.1566 14.9308 39.7362 15.3511C40.3162 15.7732 40.5786 15.9834 40.5786 16.3511C40.5786 16.7188 40.4213 17.141 39.7362 17.3511C39.0515 17.5613 38.7362 17.4037 38.4718 17.4037C38.2091 17.4037 37.4715 17.6138 36.997 17.7189C36.5224 17.8239 35.8618 18.535 35.7155 19.0529C35.4003 20.1768 35.1357 21.4057 34.8731 21.5108C34.6104 21.6158 34.3459 21.6515 33.7154 21.6515C33.085 21.6515 34.4002 19.8615 34.0306 19.5445C33.661 19.2274 34.5578 19.0885 34.4528 18.5613C34.3477 18.0341 33.0493 18.1936 33.0493 18.1936C33.0493 18.1936 31.2594 17.8784 30.9949 18.141C30.7322 18.4037 30.6271 18.5632 30.0474 18.4563C29.4676 18.3512 29.0999 18.3512 29.0473 18.6138C28.9948 18.8765 29.2575 19.4563 28.9948 19.6664C28.7321 19.8766 28.6796 20.6664 28.7847 20.8766C28.8897 21.0867 29.2593 21.1918 29.3119 21.7716C29.3644 22.3513 29.3644 22.8767 29.3644 22.8767L27.2049 25.9837C27.2049 25.9837 25.8878 28.0907 25.6251 28.0382C25.3624 27.9857 24.9928 28.0382 24.5725 28.1958C24.1504 28.3534 23.7826 28.8281 22.9927 28.511C22.2028 28.1958 21.9401 27.9838 21.7825 27.8787C21.6249 27.7737 21.4673 27.299 21.1502 27.3515C20.835 27.404 20.7281 28.0363 20.623 28.1939C20.5179 28.3515 20.4654 28.7737 19.9907 28.8262C19.516 28.8788 19.0958 28.1939 18.6211 28.3515C18.1464 28.5091 17.621 29.5617 17.4109 29.5617C17.2007 29.5617 15.726 29.2465 15.4108 28.9294C15.0956 28.6123 13.9361 27.1395 13.831 26.7173C13.726 26.2952 12.831 26.2426 12.7785 26.5072C12.7259 26.7699 11.0411 27.5598 10.8309 27.5598C10.6208 27.5598 9.83088 27.5598 9.35618 27.2971C8.88148 27.0344 8.51375 26.2971 7.98653 25.8749C7.45931 25.4528 6.19659 25.5597 5.87951 25.2951C5.5643 25.0325 4.35225 25.2426 4.08957 24.9274C3.8269 24.6122 3.72183 23.6103 4.03704 23.4527C4.35225 23.2951 4.82694 23.5578 5.03707 23.4527C5.24721 23.3476 5.45923 22.8729 6.14218 22.7678C6.82701 22.6628 7.29983 22.6628 7.66944 22.978C8.03908 23.2932 8.14414 22.083 8.51188 22.0305C8.87961 21.9779 9.09164 22.0305 9.30177 21.8203C9.51192 21.6102 9.72392 20.6627 10.1968 20.2931C10.6714 19.9253 11.0917 19.8709 11.4069 19.8709C11.7221 19.8709 12.3019 20.2387 12.512 19.976C12.7222 19.7133 13.0918 18.976 12.4069 18.3437C11.7221 17.7114 11.4069 17.5538 10.9848 17.3962C10.5626 17.2386 10.2474 16.3436 10.3525 16.0265C10.4575 15.7113 10.8797 15.5518 11.1423 15.6044C11.405 15.6569 12.3526 15.7094 12.5646 15.5518C12.7766 15.3942 13.1443 15.1841 13.6171 15.2366C14.0899 15.2892 14.6697 15.5518 14.7748 15.7639C14.8798 15.9758 15.4071 16.5012 15.4071 16.5012C15.4071 16.5012 16.1969 16.5012 16.3546 16.1335C16.5122 15.7657 16.6172 15.3436 17.0919 15.291C17.5666 15.2385 17.6191 15.186 18.409 15.2385C19.199 15.291 19.4091 15.291 19.5667 15.4486C19.7243 15.6062 19.5141 15.5537 19.8294 15.8708C20.1446 16.1879 20.2515 16.4505 20.4091 16.5031C20.5667 16.5556 21.199 16.2929 21.3041 15.7657C21.4092 15.2385 21.5142 15.0809 22.2516 14.6081C22.989 14.1334 24.5687 14.3454 24.5687 14.3454L25.2067 14.2947Z" fill="#048410"/>
</g>
</g>
<g id="g3198">
<g id="g3196">
<path id="path3194" d="M48.7434 16.7265C48.6064 16.7003 48.4938 16.5952 48.4676 16.4564C48.4413 16.3119 48.3663 16.1487 48.1618 16.1487C47.8728 16.1487 47.2593 16.1806 47.0079 16.1956C46.9385 16.1993 46.8728 16.2256 46.8165 16.2669C46.6345 16.402 46.1654 16.6928 45.6326 16.5708C44.9477 16.4132 43.7901 16.2031 43.5781 15.9911C43.3661 15.779 42.6306 15.5164 42.2084 15.6233C41.7863 15.7303 41.4711 15.886 41.1559 15.6758C40.8407 15.4657 40.5236 15.5182 40.2084 15.0961C39.8932 14.6739 38.0319 13.657 38.3471 12.2536C38.5441 11.3736 39.9438 12.096 40.4185 12.1485C40.8932 12.2011 41.2084 12.1485 41.4711 11.8858C41.7338 11.6232 42.1559 10.9383 42.5762 10.8858C42.9965 10.8333 43.7338 10.7282 43.9459 10.7807C44.1579 10.8333 44.5688 10.5349 44.7357 10.201C45.0509 9.56869 45.565 9.71314 46.0397 9.60808C46.5144 9.50302 46.7771 9.88388 47.4225 9.83136C47.8559 9.7957 47.6327 9.19905 47.8972 8.93637C48.1618 8.6737 48.8091 8.65494 49.2838 8.76003C49.7584 8.8651 50.1093 8.88199 50.3194 8.98892C50.5296 9.09585 50.978 8.71313 51.3458 8.87071C51.7135 9.02832 51.6872 9.08086 52.0043 9.39795C52.3214 9.71501 52.4152 9.74129 52.6366 9.88578C52.8993 10.0565 53.6366 10.0959 53.7942 10.413C53.9518 10.7282 53.9518 11.2554 54.4265 11.3079C54.9012 11.3605 55.269 11.413 55.3215 11.2554C55.374 11.0978 56.0063 10.4655 56.1639 10.7282C56.3215 10.9909 56.3741 11.413 56.6386 11.3605C56.7962 11.3286 57.2728 11.2967 57.6312 11.2779C57.8582 11.2648 58.0345 11.4674 57.9914 11.6907C57.9088 12.1204 57.6424 12.2311 57.376 12.4318C56.9538 12.747 56.9895 13.2217 56.7268 13.1166C56.4641 13.0116 56.1658 12.8878 55.9012 13.1523C55.6386 13.415 55.4266 13.9422 55.0063 13.9947C54.5841 14.0473 54.4791 13.9422 54.2689 14.0473C54.0588 14.1523 54.4791 15.2574 53.9012 15.4169C53.3233 15.5764 52.479 15.4695 52.1638 15.5745C51.8486 15.6796 51.5315 15.6271 51.4264 15.9423C51.3213 16.2575 50.3213 16.7322 50.1618 16.7847C50.0399 16.826 49.7603 16.8654 49.6402 16.8823C49.6027 16.8879 49.5652 16.886 49.5277 16.8785L48.7434 16.7265Z" fill="#048410"/>
</g>
</g>
<g id="g3204">
<g id="g3202">
<path id="path3200" d="M48.0577 20.3987C48.0577 20.3987 47.2678 20.9785 46.9001 20.7139C46.5323 20.4512 45.6899 19.2917 45.4779 19.1867C45.2677 19.0816 44.688 18.7645 44.3202 18.712C43.9525 18.6594 43.2677 18.1847 42.6354 18.5018C42.0031 18.8189 41.6353 19.1867 41.2132 19.2392C40.791 19.2917 39.8961 19.4493 39.8961 19.4493C39.8961 19.4493 38.4213 19.2392 38.001 19.712C37.5808 20.1848 37.0535 20.8171 36.7365 20.8696C36.4213 20.9222 35.4719 20.607 35.2617 20.4475C35.0516 20.288 34.0516 20.3424 33.8396 20.4475C33.6275 20.5525 33.5769 20.9747 33.2073 20.9747C32.8395 20.9747 32.2072 20.7646 31.68 20.5525C31.1528 20.3424 30.1528 20.8152 29.8901 21.1848C29.6274 21.5526 29.6799 22.0798 29.5223 22.2374C29.3647 22.395 28.5748 22.8697 28.5223 23.1324C28.4698 23.3951 25.4678 25.9749 25.4678 25.9749L25.783 26.9224C25.783 26.9224 26.0982 28.08 26.8356 28.5547C27.5729 29.0294 28.5204 30.187 29.2578 30.2921C29.9952 30.3972 29.785 30.2921 30.5224 30.3447C31.2597 30.3972 31.7325 30.7124 31.9446 30.9769C32.1547 31.2396 32.1021 31.6092 32.7345 31.5567C33.3667 31.5042 33.9991 31.7143 34.1566 31.4516C34.3142 31.189 34.4719 31.0295 34.6313 31.189C34.7889 31.3466 34.4212 31.3991 35.0535 31.7162C35.6858 32.0333 36.001 32.4535 36.3706 32.3485C36.7384 32.2434 37.213 32.2434 37.5808 32.1909C37.9485 32.1383 38.3181 32.1383 38.3181 32.1383C38.3181 32.1383 39.7929 31.8231 40.3726 32.0333C40.9524 32.2434 41.2151 32.8757 41.9524 32.7706C42.6898 32.6656 43.217 32.8232 43.3746 32.5605C43.5322 32.2978 43.8493 32.1927 44.0069 32.2453C44.1645 32.2978 44.4816 32.4029 44.4816 32.4029C44.4816 32.4029 45.1664 32.508 45.324 32.4554C45.4816 32.4029 45.6392 32.4029 45.8513 32.2453C46.0633 32.0877 45.5886 31.9826 46.0614 32.0877C46.5361 32.1927 45.6937 32.2453 46.5361 32.1927C47.3785 32.1402 46.9583 31.2978 46.9583 31.2978L48.9583 30.0332L49.6957 30.1908C49.6957 30.1908 50.328 28.7161 50.3805 28.2433C50.433 27.7686 52.9078 27.1382 52.8553 26.9261C52.8027 26.7141 52.5926 26.1888 52.5926 26.1888L52.2774 25.7666C52.2774 25.7666 51.8552 26.1344 51.435 25.7141C51.0147 25.2938 50.9077 24.8191 50.9077 24.5039C50.9077 24.1887 49.5381 22.1868 49.5381 22.1868C49.5381 22.1868 48.6431 21.7121 48.5906 21.4494C48.5305 21.1886 48.0577 20.3987 48.0577 20.3987Z" fill="#048410"/>
</g>
</g>
<g id="g3210">
<g id="g3208">
<path id="path3206" d="M48.1118 22.939C48.1118 22.939 48.1643 23.5188 48.2169 23.7289C48.2694 23.939 49.534 25.3612 49.534 25.3612L51.2714 24.8865C51.2714 24.8865 51.2189 24.1492 51.429 23.939C51.6391 23.7289 51.429 23.939 51.6917 23.7814C51.9544 23.6239 51.6391 23.3593 51.4815 23.0966C51.3239 22.8339 51.429 22.6219 51.429 22.2542C51.429 21.8864 51.6917 22.044 51.8512 22.044C52.0107 22.044 52.1664 22.2017 52.3258 22.3593C52.4835 22.5169 52.9056 23.0966 52.8005 23.5694C52.6955 24.0441 53.0632 24.3593 53.2227 24.7271C53.3803 25.0948 53.0125 25.4644 52.2752 25.7797C51.5378 26.0948 50.4853 26.4119 50.4853 26.4119L49.4852 26.6221L49.17 27.8867C49.17 27.8867 50.96 29.0443 51.1175 29.0968C51.2752 29.1494 52.0125 29.3595 52.5397 29.6766C53.067 29.9918 53.067 29.9393 53.4347 29.7817C53.8025 29.6241 54.067 28.0968 54.067 28.0968L54.5942 28.0443C54.5942 28.0443 55.1214 28.1493 55.2791 28.2544C55.4367 28.3595 55.6468 28.3069 55.6468 28.3069L56.3316 28.0443C56.3316 28.0443 56.6468 27.729 56.8063 27.5696C56.9639 27.412 57.1741 27.8322 57.1741 27.8322L57.8064 27.9898C57.8064 27.9898 58.3336 27.7797 58.5437 27.6747C58.7538 27.5696 59.1235 27.2 59.1235 27.2C59.1235 27.2 59.7558 26.9373 60.071 26.9373C60.3862 26.9373 60.2811 27.2525 60.5457 27.3594C60.8102 27.4664 61.4932 27.3594 61.6508 27.2544C61.8084 27.1493 62.3356 27.2018 62.4932 27.6221C62.6508 28.0443 62.071 28.2544 61.8084 28.1493C61.5457 28.0443 60.7558 28.1493 60.7558 28.5171C60.7558 28.8848 60.5457 28.9918 60.5457 28.9918C60.5457 28.9918 60.283 29.1494 60.1235 29.4139C59.9659 29.6766 60.1235 29.9411 60.3336 30.3089C60.5438 30.6766 61.0185 30.8886 61.0185 30.8886C61.0185 30.8886 61.3337 31.2564 61.7558 31.5735C62.178 31.8906 62.7559 31.0988 62.7559 31.0988L64.1255 31.3615C64.1255 31.3615 64.9154 31.3615 65.073 31.3615C65.2306 31.3615 65.6528 31.5191 65.968 31.6241C66.2832 31.7292 67.1782 31.414 67.6003 31.1494C68.0225 30.8868 69.1801 31.7817 69.1801 31.7817C69.1801 31.7817 69.8124 32.0969 70.0226 32.2039C70.2327 32.3108 70.6023 32.2039 70.8124 32.0988C71.0226 31.9938 71.7074 31.8361 71.7074 31.8361C71.7074 31.8361 72.9176 31.5209 73.0245 30.2564C73.1296 28.9918 71.7074 29.0462 71.7074 29.0462C71.7074 29.0462 71.2327 28.6784 71.1277 28.4664C71.0226 28.2563 70.5479 28.2037 70.1276 28.2563C69.7055 28.3088 69.3903 28.2037 69.2852 27.6765C69.1801 27.1493 70.1802 26.9917 70.1802 26.9917C70.1802 26.9917 71.0226 26.7815 71.2327 25.622C71.4429 24.4625 70.5479 23.9897 70.0751 23.8321C69.6004 23.6745 69.0225 24.0948 69.0225 24.0948C69.0225 24.0948 67.9699 23.8321 67.7054 24.0422C67.4427 24.2524 66.6528 24.0422 66.3357 23.7796C66.0205 23.5169 66.5984 23.0947 66.8104 22.7795C67.0206 22.4643 66.8104 22.7795 66.5478 22.0422C66.2851 21.3048 66.863 21.0947 66.3376 20.7251C65.8104 20.3573 66.3376 20.7251 65.3376 20.5149C64.3375 20.3048 65.3376 20.5149 65.2325 20.3573C65.1274 20.1997 64.4952 19.725 63.8103 19.8301C63.1255 19.9351 63.073 19.5674 62.9153 19.5149C62.7578 19.4623 62.6002 19.3573 62.3356 19.0927C62.0729 18.83 62.3356 19.0927 62.3356 18.9351C62.3356 18.7775 62.5983 18.3028 62.5983 18.3028C62.5983 18.3028 62.5983 18.0927 62.5457 17.5655C62.4932 17.0382 62.5457 17.5655 62.4932 17.4079C62.4407 17.2503 62.0185 16.9857 62.0185 16.9857C62.0185 16.9857 62.0185 16.9857 61.5964 16.6705C61.1742 16.3553 60.9115 16.4604 60.7014 16.5129C60.4913 16.5654 60.1742 16.7756 60.0166 16.7756C59.8589 16.7756 59.1216 16.4604 58.6469 16.5129C58.1722 16.5654 58.3317 17.1977 58.3317 17.4604C58.3317 17.7231 57.7519 17.7756 57.7519 17.7756C57.7519 17.7756 57.1722 17.6705 56.9095 17.5129C56.6468 17.3553 56.3297 17.2503 56.0146 17.0382C55.6993 16.8281 55.0145 16.9332 54.75 17.0908C54.4854 17.2484 53.5398 17.2484 53.2752 17.3009C53.0107 17.3534 52.9075 16.8262 52.6955 16.4585C52.4853 16.0907 51.4309 15.9312 51.4309 15.9312L50.9036 15.5091L49.1137 16.1414C49.1137 16.1414 48.2713 17.0889 47.8491 17.1414C47.427 17.194 46.9542 16.2465 46.427 16.1414C45.8997 16.0363 46.1643 16.7737 46.1117 16.9313C46.0592 17.0889 45.5845 17.194 45.1642 17.2465C44.744 17.299 43.8997 16.9313 43.5844 17.2465C43.2692 17.5617 44.7421 17.7737 44.9541 17.7737C45.1661 17.7737 45.5864 18.1415 45.6389 18.3535C45.6915 18.5655 46.4288 18.8282 46.6915 18.8807C46.9542 18.9332 47.0593 19.7231 47.1662 20.0383C47.2713 20.3536 48.2188 21.5131 48.5884 21.4605C48.9561 21.408 49.5884 21.3555 49.5884 21.3555C49.5884 21.3555 49.9562 20.8808 50.1157 20.8283C50.2751 20.7757 51.1682 20.1434 51.1682 20.1434C51.1682 20.1434 51.0632 21.2485 50.5359 21.6181C50.0087 21.9859 49.5359 22.1979 49.5359 22.1979H49.0087L48.1118 22.939Z" fill="#048410"/>
</g>
</g>
<g id="g3216">
<g id="g3214">
<path id="path3212" d="M25.3628 23.8337L25.6255 28.0459C25.6255 28.0459 26.1002 43.2115 25.9933 45.2115C25.8882 47.2116 25.9933 50.4763 25.9933 51.2136C25.9933 51.9512 25.6068 58.0582 25.6068 59.0076C25.6068 59.8782 25.3103 84.6989 25.2615 88.6916C25.2578 89.0706 25.436 89.367 25.8 89.4777C26.0927 89.5659 26.6856 89.5472 27.2391 89.5472C27.9577 89.5472 28.3311 89.5321 28.6406 89.3858C28.8902 89.2676 29.0478 89.0162 29.0478 88.7404L29.1529 52.2661C29.1529 52.2661 29.1529 50.5814 29.0478 49.5288C28.9427 48.4763 29.363 46.4743 29.2579 45.2115C29.1529 43.9488 28.8358 40.3672 28.8358 39.9468C28.8358 39.5264 29.0459 35.8042 29.0459 34.9615C29.0459 34.1192 28.6951 25.6235 28.6951 25.6235L25.3628 23.8337Z" fill="#048410"/>
</g>
</g>
<g id="g3222">
<g id="g3220">
<path id="path3218" d="M48.1116 27.8344C48.1116 27.8344 49.4813 30.1516 49.4813 30.994C49.4813 31.8364 49.1661 36.3658 49.1661 38.2607C49.1661 40.1557 49.2711 44.1577 49.2711 44.6851C49.2711 45.2122 48.7439 50.2667 48.7439 51.2142C48.7439 52.162 48.4287 60.0608 48.4287 60.588C48.4287 61.074 48.4494 85.2756 48.4475 89.0168C48.4475 89.3114 48.6426 89.5985 48.9353 89.636C49.2862 89.681 49.789 89.6942 50.3143 89.6942C50.8678 89.6942 51.4326 89.6923 51.7684 89.5891C51.9954 89.5178 52.1512 89.3076 52.1512 89.0694L52.1155 50.0585C52.1155 50.0585 52.4308 45.3192 52.3257 45.0039C52.2206 44.6886 52.3257 41.7392 52.3257 41.7392L52.2206 40.6866C52.2206 40.6866 52.0105 37.9493 52.0105 37.212C52.0105 36.4747 51.9054 31.3148 51.9054 31.3148L51.5902 28.0504L48.1116 27.8344Z" fill="#048410"/>
</g>
</g>
<g id="g3228">
<g id="g3226">
<path id="path3224" d="M20.6888 72.8427C20.8652 73.1223 21.171 73.293 21.5012 73.2968C23.9554 73.323 34.3591 73.4262 38.0028 73.3962C42.2506 73.3606 54.054 73.4131 54.8964 73.4131C55.7388 73.4131 60.6808 73.3606 60.6808 73.3606C60.6808 73.3606 61.8046 71.2723 61.5928 71.0622C61.3807 70.852 44.7948 70.518 38.8977 70.3773C33.0007 70.2366 24.9554 70.1709 23.5445 70.1409C22.6589 70.1222 21.0903 70.0752 20.2385 70.1072C19.5012 70.1334 19.2873 70.2704 19.4674 70.5875C19.6925 70.9852 20.2798 72.1954 20.6888 72.8427Z" fill="#048410"/>
</g>
</g>
<g id="g3234">
<g id="g3232">
<path id="path3230" d="M13.5333 44.7356L13.9555 45.2966C13.9555 45.2966 19.3609 50.0716 21.6781 51.8259C23.8208 53.4489 26.031 56.0381 26.031 56.0381L26.6633 52.8785C26.6633 52.8785 20.6255 47.8933 18.8694 46.2084C17.5072 44.9007 16.3421 44.1727 16.3421 44.1727L13.5333 44.7356Z" fill="white"/>
</g>
</g>
<g id="g3240">
<g id="g3238">
<path id="path3236" d="M29.3739 55.7801C29.3739 55.7801 39.0046 47.9524 39.2617 47.5847C39.5187 47.2169 39.8959 46.4889 39.8959 46.4889L37.7157 46.4871C37.7157 46.4871 32.9331 49.8174 31.8674 50.7311C30.7999 51.643 27.6891 53.6018 27.6891 53.6018L29.3739 55.7801Z" fill="white"/>
</g>
</g>
<g id="g3246">
<g id="g3244">
<path id="path3242" d="M48.6666 56.1348L39.0696 47.9337L37.8632 47.3145L40.2498 46.1213C40.2498 46.1213 46.9198 51.5267 47.903 52.2997C48.8861 53.0727 49.4471 53.9152 49.4471 53.9152L48.6666 56.1348Z" fill="white"/>
</g>
</g>
<g id="g3252">
<g id="g3250">
<path id="path3248" d="M50.5349 56.6505L57.1336 49.9805L56.1504 48.577L55.308 48.0854L50.3941 52.0161L50.5349 56.6505Z" fill="white"/>
</g>
</g>
<g id="g3258">
<g id="g3256">
<path id="path3254" d="M34.6614 31.1098L32.4925 35.3088L33.5995 36.1475L36.0911 30.9709L35.0761 31.0628L34.6614 31.1098Z" fill="#427159"/>
</g>
</g>
<g id="g3264">
<g id="g3262">
<path id="path3260" d="M43.0231 34.5129L38.9516 31.0738L37.8278 31.4247L41.8298 35.5674L43.0231 34.5129Z" fill="#048410"/>
</g>
</g>
<g id="g3270">
<g id="g3268">
<path id="path3266" d="M29.6136 36.2224C29.6136 36.2224 32.0715 34.8189 32.5631 34.8189C33.0547 34.8189 33.9665 35.9428 33.9665 35.9428C33.9665 35.9428 34.6682 36.2937 35.0191 36.5038C35.37 36.7139 36.1824 36.4738 36.6739 36.8246C37.1655 37.1755 36.8447 37.9785 37.4076 37.9785C37.9686 37.9785 38.3907 37.0667 38.6721 36.4344C38.9536 35.8021 39.584 35.3105 39.796 35.3818C40.0061 35.4512 40.6385 35.5919 40.7079 35.3818C40.7773 35.1717 40.8486 34.9597 40.7773 34.5394C40.7079 34.1172 42.1113 33.8377 42.1113 33.8377C42.1113 33.8377 43.6554 33.9784 44.0776 33.6275C44.4997 33.2767 45.6931 33.2054 46.1846 33.2767C46.6762 33.3461 45.9032 31.1697 46.0439 30.9595C46.1846 30.7494 48.7119 28.7831 48.7119 28.7831L51.59 29.4154C51.59 29.4154 52.5732 30.1884 52.8546 30.3985C53.1361 30.6087 53.9072 30.4679 53.9072 30.8207C53.9072 30.9651 54.183 31.1359 54.5601 31.2372C55.1005 31.3836 55.6221 31.5261 56.0668 31.1021C56.3013 30.8788 57.1869 30.7475 57.8042 30.8394C58.4215 30.9295 58.9449 31.5412 59.1213 31.6819C59.4722 31.9633 59.4553 32.6481 60.2264 32.5074C60.9994 32.3667 61.7011 32.438 61.7011 32.438L63.5961 32.2279C63.5961 32.2279 65.7032 31.8057 65.8418 33.0009C65.9827 34.1941 65.0691 34.7551 64.298 34.8265C63.5249 34.8959 62.6129 34.4756 62.8231 35.1773C63.0333 35.879 63.2454 35.879 64.298 36.0891C64.8063 36.1905 66.052 34.6857 67.6675 34.9653C68.4856 35.1079 68.0072 36.3518 68.3693 36.8603C68.6356 37.2318 70.0353 37.0686 70.2829 37.4738C70.6885 38.1399 71.4931 38.896 69.0015 39.9486C67.7371 40.8604 67.1761 40.791 66.4743 40.7216C65.7725 40.6522 65.2809 40.8623 64.72 41.1437C64.159 41.4252 63.2454 41.3539 63.0352 41.2845C62.825 41.215 62.4743 41.215 62.1232 41.2845C61.7724 41.3539 60.5791 41.9168 60.2977 42.0575C60.0163 42.1982 58.1213 43.11 58.6822 43.6016C59.2432 44.0932 60.8587 43.2508 60.8587 44.0932C60.8587 44.9356 58.9637 45.3578 59.8755 46.2002C60.2602 46.5548 61.7537 45.5604 62.0687 46.007C62.7012 46.9019 62.3898 47.7387 61.279 48.8495C60.7517 49.3767 59.0725 49.2641 58.6466 49.4292C57.7254 49.7876 58.5415 50.1666 57.2075 50.6225C56.6728 50.8064 56.2431 50.4255 55.8735 50.3242C55.5658 50.2398 55.153 50.8158 54.2581 50.5869C53.9147 50.4987 54.0236 49.5005 54.1361 49.1647C54.2374 48.8626 54.2562 48.6806 54.1886 48.3748C54.0479 47.7425 53.9072 46.9714 53.3462 47.1102C52.7852 47.2509 52.2936 47.4611 52.2936 47.4611H51.2411L50.2579 48.4442L49.134 49.2172L48.6425 48.6562C48.6425 48.6562 46.5355 48.8664 46.466 47.5324C46.3966 46.1983 47.6593 45.6374 48.0102 45.5661C48.361 45.4966 52.0816 45.4253 52.8546 44.7236C53.6277 44.0219 55.2412 43.1795 55.5227 42.9693C55.8041 42.7592 56.5058 41.3539 56.9261 41.0743C57.3464 40.7948 58.4008 40.8642 58.611 40.2319C58.8211 39.5996 58.3295 39.32 57.4871 39.108C56.6446 38.896 55.7328 37.9842 55.7328 37.9842C55.7328 37.9842 54.5395 38.896 54.2581 39.108C53.9766 39.32 53.0648 39.669 52.8546 39.7403C52.6445 39.8097 52.2224 40.6878 52.2224 40.6878C52.2224 40.6878 53.2749 41.0743 53.1342 41.3539C52.9935 41.6353 51.6595 41.776 51.6595 41.776L49.9052 41.7066C49.9052 41.7066 49.4136 41.6372 48.9933 41.6372C48.573 41.6372 48.5018 42.4102 48.2203 42.6204C47.9389 42.8305 45.693 42.6898 45.693 42.6898C45.693 42.6898 44.4997 42.4796 44.8506 43.0406C45.2015 43.6016 45.7625 43.8136 46.254 43.9525C46.7456 44.0932 47.0271 44.0219 47.1659 44.5135C47.3066 45.005 47.5167 46.4085 47.5167 46.7593C47.5167 47.1102 44.8487 48.0933 44.4979 48.0933C44.147 48.0933 41.3383 47.7425 41.3383 47.7425L36.7753 48.0933L35.3718 49.9884L33.6344 49.4799C33.6344 49.4799 32.0021 49.2172 32.2835 48.6543C32.565 48.0933 32.9158 47.6018 33.1954 47.2509C33.4768 46.9001 34.5294 46.339 34.6701 46.1271C34.8108 45.9169 34.6007 45.4253 34.3193 45.4947C34.0378 45.5642 33.0547 46.4779 32.7751 46.5473C32.4937 46.6167 31.6512 46.6167 31.3004 46.4066C30.9495 46.1965 30.3885 45.915 30.5274 45.6336C31.6156 45.2471 31.5105 44.1945 31.5105 44.1945C31.5105 44.1945 30.8445 43.6673 30.7732 43.1757C30.7037 42.6842 30.8782 41.4214 30.8782 41.4214L29.7544 38.684L29.6136 36.2224Z" fill="#048410"/>
</g>
</g>
<g id="g3276">
<g id="g3274">
<path id="path3272" d="M23.6929 41.009C23.6929 41.009 22.4489 45.3769 21.9161 46.8328C21.3832 48.2888 20.9029 48.3939 20.9029 48.3939L22.4715 49.7841C22.4715 49.7841 23.6047 47.3169 23.8711 45.7803C24.1376 44.2436 24.7605 41.8983 24.7605 41.8983L23.6929 41.009Z" fill="#048410"/>
</g>
</g>
<g id="g3282">
<g id="g3280">
<path id="path3278" d="M46.4134 46.5676C46.4134 46.5676 46.5166 47.2693 46.3177 47.7909C46.1188 48.3125 44.9556 51.3858 44.9556 51.3858L45.5147 52.459L47.374 47.7928L46.4134 46.5676Z" fill="white"/>
</g>
</g>
<g id="g3288">
<g id="g3286">
<path id="path3284" d="M54.888 37.7175L54.9575 44.9485L56.4322 44.1755L55.9406 36.3121L54.888 37.7175Z" fill="#048410"/>
</g>
</g>
<g id="g3294">
<g id="g3292">
<path id="path3290" d="M32.1403 30.0652C32.1403 30.0652 29.5417 32.7333 29.3315 33.2248C29.1214 33.7164 27.9281 35.4707 27.9281 35.4707L27.718 33.2943L31.0183 29.7838L32.1403 30.0652Z" fill="#048410"/>
</g>
</g>
<g id="g3300">
<g id="g3298">
<path id="path3296" d="M41.0243 59.024H37.0992V65.1931H41.0243V59.024Z" fill="white"/>
</g>
</g>
<g id="g3306">
<g id="g3304">
<path id="path3302" d="M11.9884 35.2098C11.9884 35.2098 11.5137 34.7352 10.9358 34.1573C10.356 33.5775 9.67119 33.0522 9.40852 33.4724C9.14585 33.8946 9.19838 35.0522 9.19838 35.0522L10.3035 36.6846L11.9884 35.2098Z" fill="#048410"/>
</g>
</g>
<g id="g3312">
<g id="g3310">
<path id="path3308" d="M19.1501 25.5162C19.1501 25.5162 16.5177 26.0434 16.7278 26.3586C16.938 26.6738 16.8329 27.9384 16.8329 27.9384L18.6228 29.7284L19.2552 30.9929C19.2552 30.9929 17.4652 31.3082 16.7278 31.8354C15.9905 32.3626 15.043 33.205 15.043 33.205L13.148 34.0475C13.148 34.0475 12.5157 35.5222 11.9903 35.2051C11.692 35.025 10.5118 34.8974 9.06714 34.4677C7.96767 34.1413 7.28848 32.8673 6.69747 33.2576C5.30154 34.1788 6.77626 36.0475 7.67124 36.9444C7.93952 37.2127 7.93392 38.3666 7.40857 38.4716C6.88322 38.5767 6.09143 37.9444 4.72364 38.8938C4.41406 39.1095 4.10261 39.1809 3.90374 39.3403C3.44029 39.7099 3.17388 40.0739 2.61663 39.8769C1.99184 39.6556 1.01057 39.5561 0.791048 39.6668C0.368894 39.8769 -0.22775 40.5787 0.0893348 40.8957C0.404542 41.2109 0.759152 41.8132 1.10813 41.8789C1.44211 41.9427 2.58286 41.5637 2.72358 41.528C3.60167 41.3085 3.25079 42.4755 3.14573 42.8977C3.04066 43.3198 2.83052 45.7402 3.98817 46.0573C5.1458 46.3725 5.98823 46.3725 6.41039 45.8471C6.83254 45.3199 8.12902 44.7683 8.62248 44.5826C9.12156 44.3949 9.30167 44.1379 9.34857 43.9109C9.39738 43.6688 9.65441 43.5319 9.8852 43.62C10.6638 43.9165 10.7032 43.1697 11.4669 44.3011C11.6207 44.53 11.1835 45.0103 11.3618 45.425C11.5719 45.9166 12.5551 46.6896 13.8103 46.2149C14.6978 45.879 16.6265 45.9522 16.6265 45.9522L17.574 45.425L18.7317 45.2149C18.7317 45.2149 19.8893 45.2149 20.2064 45.3199C20.5235 45.425 21.6811 44.6876 21.8913 45.0047C22.1014 45.3218 21.8913 46.1624 23.0489 46.2693C24.2066 46.3762 24.5236 45.3218 24.8388 45.1117C25.1541 44.9015 25.6813 43.1116 26.1034 43.4268C26.5256 43.742 26.6306 45.3218 27.5781 45.0066C28.5256 44.6914 29.4731 43.954 29.4731 43.954L30.0004 42.3742C30.0004 42.3742 30.5276 42.059 31.158 41.9521C31.7903 41.847 32.7378 41.2147 32.7378 40.8995C32.7378 40.5843 32.1055 38.7925 32.1055 38.7925C32.1055 38.7925 30.8409 35.1056 30.1055 35.0006C29.37 34.8955 28.8409 35.4227 28.8409 35.4227L26.9459 34.2651C26.9459 34.2651 26.1034 31.8429 25.7882 31.7378C25.473 31.6327 24.5236 31.4226 24.5236 31.4226C24.5236 31.4226 24.6287 32.16 23.6812 31.5277C22.7337 30.8954 22.9438 30.158 22.3116 29.8428C21.6792 29.5276 20.0995 30.6852 19.9944 28.8428C19.9663 28.3587 21.364 25.9459 20.8368 25.7357C20.3096 25.5256 19.1501 25.5162 19.1501 25.5162Z" fill="#048410"/>
</g>
</g>
<g id="g3318">
<g id="g3316">
<path id="path3314" d="M25.9975 57.2051L29.1214 55.3363C29.1214 55.3363 28.9995 48.7019 28.9995 48.3586C28.9995 48.0171 28.8944 45.805 28.8944 45.2778C28.8944 44.7506 28.7368 43.4354 28.7105 43.304C28.6843 43.1727 27.7368 42.1464 27.4197 42.1726C27.1045 42.1989 26.656 42.6998 26.656 42.6998L25.9975 43.0413L25.9449 55.5465L25.9975 57.2051Z" fill="white"/>
</g>
</g>
<g id="g3324">
<g id="g3322">
<path id="path3320" d="M49.2949 41.3661C49.2949 41.3661 49.4263 44.3155 49.4 45.7884C49.3737 47.2631 49.0585 51.8693 49.0585 51.8693L48.8015 53.6592L48.9178 56.0195L49.5576 57.134L50.8485 56.8188L51.6384 55.1602L52.0136 54.0551C52.0136 54.0551 52.0061 49.8692 52.0061 49.5521C52.0061 49.2369 51.9536 43.3905 51.9536 43.0228C51.9536 42.6551 51.9536 41.443 51.9536 41.443C51.9536 41.443 51.5858 41.6794 51.2687 41.6269C50.9535 41.5743 49.6364 41.5218 49.6364 41.5218L49.2949 41.3661Z" fill="#427159"/>
</g>
</g>
<g id="g3330">
<g id="g3328">
<path id="path3326" d="M27.1107 3.80382C27.0545 3.61056 26.8331 3.52239 26.6604 3.62368C26.3771 3.79067 25.9812 4.03271 25.7317 4.22034C25.3096 4.53556 24.8761 4.30851 24.6135 4.51866C24.4915 4.61621 24.4521 5.03838 24.3245 5.38736C24.1744 5.79638 24.0731 6.33298 24.1181 6.4662C24.3283 7.07973 24.7842 7.11538 25.0488 7.32551C25.3114 7.53565 25.8387 7.90527 26.3133 7.90527C26.788 7.90527 27.4184 7.85274 27.683 7.59006C27.9457 7.32739 28.4729 7.06284 28.7881 7.16791C29.1033 7.27298 29.7 7.83398 30.3154 7.4137C30.5799 7.2317 31.1578 6.8527 31.685 6.92212C32.1109 6.97841 32.443 7.09286 32.6888 7.20543C32.9571 7.33114 33.2629 7.11913 33.2404 6.82268C33.216 6.51123 33.3718 6.25418 32.8802 6.18288C32.3567 6.10784 32.1428 6.07782 31.7563 6.18288C31.503 6.25231 31.5462 5.72696 31.5462 5.51682C31.5462 5.30668 30.9495 5.16596 30.8445 4.95582C30.7019 4.66876 30.9852 3.48109 29.9495 3.58615C29.6174 3.61994 29.5818 4.21847 29.5818 4.21847C29.5818 4.21847 29.4767 5.06089 29.1596 5.16596C28.8444 5.27103 28.5798 5.11342 28.5273 5.3761C28.4748 5.63878 28.6849 5.79826 28.4222 6.00839C28.1596 6.21853 28.0001 6.48308 27.5273 6.21853C27.0526 5.95586 26.7899 5.90332 26.8424 5.69131C26.895 5.48117 26.3152 4.79634 26.3152 4.79634C26.7899 4.48114 27.3153 4.79634 27.2627 4.42859C27.2327 4.25035 27.1689 4.00644 27.1107 3.80382Z" fill="white"/>
</g>
</g>
<g id="g3336">
<g id="g3334">
<path id="path3332" d="M19.5715 9.08933C19.5715 9.08933 20.0462 9.98432 20.7291 10.2995C21.4139 10.6147 22.2564 11.0894 22.2038 11.2996C22.1513 11.5097 22.1513 12.0369 22.414 12.1945C22.6767 12.3521 23.5716 11.9844 23.8362 12.2471C23.9694 12.3803 24.1157 12.6073 24.2283 12.7987C24.354 13.0126 24.5792 13.1495 24.8287 13.157C25.4197 13.1758 25.7143 13.0707 26.0839 12.8606C26.2884 12.7443 27.1027 12.8249 27.5755 12.93C28.0502 13.0351 27.9433 12.7724 28.4179 12.8249C28.8926 12.8775 28.8401 13.0351 29.2604 12.6673C29.6807 12.2996 28.9977 12.5623 29.6825 12.2996C30.3674 12.0369 31.1047 12.4047 31.1572 11.9319C31.2098 11.4572 31.2623 11.1945 31.4199 10.8793C31.5775 10.5641 32.7371 9.40456 32.2624 9.35201C31.7877 9.29949 31.1047 9.98432 31.1047 9.98432C31.1047 9.98432 30.9471 10.6166 30.525 10.5641C30.1028 10.5115 29.63 11.1964 29.3673 11.0913C29.1047 10.9862 29.0521 10.0387 28.7876 10.0913C28.5249 10.1438 27.8401 10.671 27.7875 10.3539C27.735 10.0387 27.6299 9.45897 27.3129 9.30136C26.9958 9.14375 27.0502 8.2488 26.4704 8.30131C25.8907 8.35386 25.5229 8.56399 25.5229 8.82856C25.5229 9.09311 25.733 9.30323 25.3653 9.51339C24.9976 9.72352 24.6279 9.77606 24.6279 9.77606C24.6279 9.77606 23.6804 9.56591 23.4178 9.61845C23.1551 9.67097 22.6804 9.93364 22.5228 9.82858C22.3652 9.72352 22.3652 9.30136 21.9956 9.14375C21.6278 8.98614 21.7329 8.88108 21.2582 8.56399C20.7835 8.2488 20.4683 8.2488 20.2056 8.40641C19.9392 8.56212 19.5715 9.08933 19.5715 9.08933Z" fill="white"/>
</g>
</g>
<g id="g3342">
<g id="g3340">
<path id="path3338" d="M30.0526 18.4363C29.5516 18.38 29.0901 18.7346 29.06 19.2375C29.0525 19.3725 29.0619 19.4832 29.1013 19.5358C29.2589 19.7459 28.9437 20.8529 28.3114 21.063C27.6791 21.2732 27.8368 20.6953 27.5741 20.1681C27.3114 19.6408 27.469 19.1155 26.7842 18.8509C26.0993 18.5883 25.5196 19.0086 25.362 18.5357C25.2044 18.061 25.6247 17.2186 25.0468 17.0085C24.467 16.7984 24.0993 15.7983 24.6246 15.6388C25.15 15.4793 25.7823 15.9015 26.2044 16.1135C26.6266 16.3255 27.362 16.6407 27.5215 16.4287C27.6791 16.2186 28.2064 15.4812 28.8386 15.5863C29.4709 15.6914 30.3134 16.166 30.3134 16.166C30.3134 16.166 31.3134 16.3237 31.5236 15.6388C31.7337 14.954 32.366 14.3217 32.7337 14.1641C33.1015 14.0065 33.5236 15.0591 33.8651 15.3743C34.7301 16.1736 34.9965 14.8471 35.4712 15.1641C35.9458 15.4812 35.9984 15.9015 36.156 15.954C36.3136 16.0066 36.8408 16.6389 37.051 16.4287C37.2611 16.2186 38.2611 15.3761 38.6308 15.5338C38.9985 15.6914 37.7358 16.9559 38.3155 16.9559C38.8953 16.9559 39.5257 16.4287 39.9479 16.7458C40.37 17.0629 39.9479 17.4832 39.3681 17.4832C38.7883 17.4832 38.3681 17.7984 37.6307 17.7984C36.8933 17.7984 36.156 17.7459 36.3661 18.2205C36.5763 18.6952 36.3136 19.1155 36.156 19.3782C35.9984 19.6408 35.156 19.7459 35.261 20.1155C35.3661 20.4833 34.6287 20.6428 34.4711 20.4307C34.3135 20.2187 34.0077 19.9936 33.8914 19.7196C33.6099 19.0536 33.8295 18.3087 33.3998 18.4213C32.4523 18.6671 31.9438 18.2187 31.3641 18.1136C30.7843 18.0085 30.5216 18.1661 30.364 18.3763C30.319 18.4419 30.197 18.4532 30.0526 18.4363Z" fill="white"/>
</g>
</g>
<g id="g3348">
<g id="g3346">
<path id="path3344" d="M55.0473 13.9818C55.4694 13.9293 55.6796 13.4021 55.9423 13.1394C56.2049 12.8767 56.5033 12.9987 56.7678 13.1038C56.8916 13.1526 56.9498 13.0737 57.0192 12.9443C56.674 12.6328 56.3306 12.3758 56.1186 12.3495C55.5576 12.2801 55.1355 12.631 54.7152 12.4902C54.293 12.3495 51.9778 10.6647 51.5556 11.2256C51.1335 11.7866 51.5556 12.6291 51.5556 12.6291C51.5556 12.6291 49.2385 12.2069 49.169 12.6985C49.0996 13.1901 47.274 13.3308 46.3603 13.4715C45.4484 13.6122 45.2364 13.9631 44.6754 14.1732C44.1144 14.3834 43.06 13.2614 42.2889 13.4715C41.5158 13.6816 41.4464 14.314 41.5871 14.5241C41.7279 14.7342 44.1144 14.7342 44.045 15.1564C43.9887 15.496 43.0694 15.3797 42.7485 15.6142C43.1088 15.6761 43.484 15.8393 43.6229 15.9801C43.833 16.1902 44.9925 16.4022 45.6773 16.5598C46.2102 16.6818 46.6793 16.391 46.8612 16.2559C46.9175 16.2146 46.9832 16.1883 47.0526 16.1846C47.3041 16.1714 47.9176 16.1377 48.2065 16.1377C48.411 16.1377 48.4861 16.3009 48.5123 16.4454C48.5367 16.5842 48.6493 16.6893 48.7882 16.7155L49.5743 16.8656C49.6118 16.8731 49.6494 16.8731 49.6869 16.8694C49.807 16.8525 50.0865 16.8131 50.2085 16.7718C50.3661 16.7193 51.3661 16.2446 51.473 15.9294C51.5781 15.6142 51.8952 15.6667 52.2104 15.5616C52.5256 15.4566 53.368 15.5616 53.9478 15.404C54.5276 15.2464 54.1054 14.1395 54.3155 14.0344C54.5219 13.9293 54.627 14.0344 55.0473 13.9818Z" fill="white"/>
</g>
</g>
<g id="g3354">
<g id="g3352">
<path id="path3350" d="M52.4818 19.0521C52.4818 19.0521 53.2548 18.7012 53.3242 19.1928C53.3936 19.6844 52.3411 20.6676 52.902 21.4387C53.463 22.2117 54.3768 22.3505 55.0785 22.2811C55.7802 22.2117 57.1855 21.7896 57.2549 22.2117C57.3244 22.6339 56.9041 23.6151 57.6771 23.7558C58.4501 23.8966 59.0186 23.6789 59.4314 24.2474C60.3263 25.4764 60.8179 23.9134 62.0112 24.0542C63.2045 24.1949 63.2927 26.1424 64.4165 26.634C65.5404 27.1256 67.1727 26.8442 66.7506 27.6866C66.3284 28.529 62.4502 27.8273 63.1519 28.5984C63.8537 29.3714 65.6042 28.2119 66.698 29.1069C67.1878 29.5084 67.9401 30.152 68.488 30.3715C69.2347 30.6698 69.7038 30.5178 69.5405 31.0038C69.2591 31.8462 68.8557 31.0563 67.8032 31.0563C67.4542 31.0563 66.9776 31.8875 66.1183 31.6361C64.9775 31.3021 64.7599 31.4147 63.9587 31.3546C63.439 31.3171 63.5347 31.2177 62.94 31.1088C62.7711 31.0769 62.3883 31.5104 62.2551 31.5835C62.0619 31.6886 61.8517 31.5967 61.7279 31.5479C61.5891 31.4935 61.3789 31.2308 61.075 30.8593C60.893 30.6379 60.681 30.6623 60.3639 30.3977C60.2156 30.2739 60.0543 29.9812 60.0092 29.818C59.9079 29.4484 60.2363 29.1932 60.4971 29.0149C60.6697 28.8967 60.7391 28.3827 61.0112 28.2457C61.4615 28.0149 62.0318 28.3114 62.302 28.1144C62.7354 27.7973 62.5065 27.4821 62.2945 27.3188C62.0731 27.1462 61.7617 27.2288 61.5515 27.2982C61.3283 27.3732 60.9305 27.4239 60.6885 27.3507C60.3113 27.2363 60.3976 27.1481 60.2607 26.9886C60.1237 26.8291 59.861 26.9061 59.6415 27.0224C59.5177 27.0881 59.2588 27.0824 59.043 27.2138C58.7991 27.362 58.7015 27.634 58.4313 27.7804C58.0617 27.9774 57.6377 28.0506 57.345 27.9643C56.9172 27.8386 57.0748 26.8629 56.6808 27.7729C56.4519 28.3001 55.7464 28.5553 55.2717 28.2926C54.5775 27.9061 54.403 28.0299 54.2454 28.6078C54.0053 29.4878 53.8589 28.8367 53.7182 29.6078C53.5775 30.3809 52.6206 29.5816 51.7782 29.3001C50.9357 29.0187 49.8119 29.3001 49.6712 28.1763C49.5304 27.0524 49.1796 26.1406 49.9526 26.1406C50.7256 26.1406 52.129 26.7728 52.129 26.3507C52.129 25.9285 52.129 24.5251 52.6206 24.5251C53.1122 24.5251 54.3749 24.0335 53.2529 23.1911C52.129 22.3487 52.129 20.7332 52.2698 20.3129C52.4123 19.8946 52.4818 19.0521 52.4818 19.0521Z" fill="white"/>
</g>
</g>
<g id="g3360">
<g id="g3358">
<path id="path3356" d="M50.7093 40.2003C50.7093 40.2003 49.5517 39.6206 49.7093 38.9901C49.8669 38.3597 50.3416 38.5155 50.3416 37.9901C50.3416 37.4629 49.9738 36.5154 50.8162 36.5154C51.6587 36.5154 52.6062 37.2002 53.7657 36.6205C54.9233 36.0407 54.9233 33.671 56.2405 34.1457C57.5576 34.6204 57.4506 36.6205 58.6102 36.5154C59.7678 36.4103 60.9798 36.0932 62.085 36.2002C63.1901 36.3071 62.9799 36.9376 62.8223 37.3053C62.6647 37.673 62.3476 38.3579 62.5597 38.3053C62.7698 38.2528 63.8768 37.5154 64.2445 38.0952C64.6123 38.6749 64.6122 38.8851 64.9819 38.8851C65.3515 38.8851 66.0344 38.6749 66.1921 39.0427C66.3497 39.4104 66.7193 39.9902 66.2446 40.2003C65.7699 40.4105 65.4547 40.4105 65.1395 40.4105C64.9819 40.4105 64.5503 40.7688 63.9106 40.8139C63.2613 40.8608 62.4039 40.5944 62.1375 40.6206C61.8955 40.645 61.6516 40.6394 61.3476 40.7782C60.9874 40.9433 60.886 41.6882 60.7153 41.8308C60.4001 42.0934 59.7678 42.3055 59.7678 42.3055C59.7678 42.3055 59.4001 42.3055 59.4526 42.7276C59.5051 43.1498 59.6102 43.465 60.0323 43.4125C60.4545 43.3599 60.9798 43.6751 60.9798 43.9922C60.9798 44.3074 60.7172 44.8178 60.2256 45.0973C59.9329 45.2643 60.3476 46.255 59.7172 46.572C59.0867 46.8891 57.7171 46.3619 57.1898 46.2043C56.6626 46.0467 56.4525 46.0992 56.1898 45.572C55.9272 45.0448 54.8558 44.0616 55.383 43.6939C55.5144 43.6019 55.6363 43.0278 56.156 43.1329C56.3324 43.1685 56.5425 43.0635 56.6833 42.5363C56.7583 42.2567 56.5613 41.2341 56.7527 41.0259C56.9253 40.8401 57.7283 40.5343 57.8765 40.3598C58.3663 39.7763 58.704 39.7857 58.5783 39.5868C58.4225 39.3429 58.4863 39.0633 58.0867 39.0596C57.5351 39.0539 56.9403 38.9958 56.6476 38.9189C56.3174 38.8326 55.9103 39.0652 55.6645 38.9883C55.2048 38.8457 54.989 38.4273 54.6457 38.4967C54.4261 38.5398 54.171 38.8513 53.8389 39.2341C53.5781 39.5343 52.8782 39.1252 52.6812 39.3748C52.5255 39.5699 52.7694 40.4761 52.7169 40.5155C52.5067 40.6731 51.6118 40.6206 51.6118 40.6206L50.7093 40.2003Z" fill="white"/>
</g>
</g>
<g id="g3366">
<g id="g3364">
<path id="path3362" d="M27.5052 26.7808C27.5052 26.7808 28.5578 28.1505 29.4528 28.5708C30.3478 28.9929 30.6104 29.098 31.2427 29.098C31.875 29.098 32.77 29.3607 32.7175 28.8878C32.6649 28.4132 31.9276 28.2555 31.9801 27.7302C32.0326 27.203 32.0326 26.8352 32.4548 26.8352C32.8769 26.8352 33.5599 27.203 33.7194 27.203C33.8769 27.203 34.2466 26.308 34.984 26.3605C35.7213 26.4131 35.8789 26.6757 36.4061 27.1504C36.9333 27.6251 36.8283 27.9929 37.5112 27.9403C38.1961 27.8878 38.4062 27.7302 38.986 27.7827C39.5657 27.8353 39.986 27.7827 39.8809 28.1505C39.7759 28.5182 39.5657 28.6777 39.2486 28.6777C38.9315 28.6777 37.8265 28.4675 37.7214 28.6777C37.6163 28.8878 37.4062 29.3625 37.0365 29.2575C36.6688 29.1524 36.5619 28.6777 36.089 28.5726C35.6144 28.4676 35.3517 28.0979 35.089 28.0979C34.8264 28.0979 34.6143 27.9403 34.6669 28.4657C34.7194 28.9929 34.9295 29.4657 35.1941 29.4657C35.4568 29.4657 35.7739 29.4132 36.089 29.6233C36.4043 29.8335 37.1416 29.8335 37.2992 29.7809C37.4568 29.7284 38.1417 29.0436 38.9315 29.3062C39.7215 29.5689 40.669 30.2012 41.0386 30.1487C41.4063 30.0961 41.9861 29.5164 42.3557 29.3062C42.7253 29.0961 43.4608 29.4113 43.6203 29.0436C43.7779 28.6758 44.7779 28.5163 44.9899 29.1486C45.202 29.7809 44.5153 30.0961 44.3576 30.3063C44.2 30.5164 43.9899 30.9386 43.7779 31.2012C43.5659 31.4639 42.7778 31.5165 42.4082 31.6234C42.0386 31.7303 42.093 32.4658 41.3031 32.2557C40.5132 32.0455 39.8809 31.5708 39.3556 31.5183C38.8284 31.4658 38.3724 31.9574 38.1098 32.115C37.8471 32.2726 37.0572 32.8354 36.4249 32.6947C35.9596 32.5915 35.3536 32.1506 35.301 32.4133C35.2485 32.676 33.5111 36.0645 33.5111 36.0645C33.5111 36.0645 32.7212 35.8881 32.6687 35.3627C32.6161 34.8355 33.9858 32.1506 34.0383 31.6234C34.0908 31.0962 33.6349 31.2557 32.9501 31.2557C32.2653 31.2557 31.4941 31.2725 30.9144 31.0099C30.3346 30.7472 29.9838 30.0436 29.6686 30.0436C29.3533 30.0436 27.8261 30.0436 27.8261 30.0436L27.5052 26.7808Z" fill="white"/>
</g>
</g>
<g id="g3372">
<g id="g3370">
<path id="path3368" d="M8.35222 25.1508C8.15897 24.9726 8.2753 24.6536 8.53797 24.6367C8.87944 24.6161 9.40479 24.6611 10.1816 24.8975C11.919 25.4247 12.0766 24.845 12.2361 24.4754C12.3936 24.1076 12.9734 23.6855 13.5006 23.8956C14.0279 24.1057 14.2905 23.6329 14.3431 23.3158C14.3956 23.0006 14.7652 22.631 15.1855 22.8937C15.6076 23.1564 16.1855 25.0007 16.8704 24.8938C17.5552 24.7887 17.345 23.6292 18.028 23.2089C18.7128 22.7868 19.3976 22.6817 19.5027 22.3139C19.6078 21.9462 20.7129 20.8392 21.3977 21.1563C22.0825 21.4715 20.9756 22.1563 21.0825 22.7361C21.1876 23.3158 21.8199 24.3684 22.5047 24.421C23.1896 24.4735 23.3471 24.1583 23.5047 23.9463C23.6624 23.7361 24.5048 24.3684 24.8219 23.9988C25.1371 23.6311 25.2965 22.7342 25.927 22.9462C26.5593 23.1564 27.3492 23.9988 27.5593 25.1583C27.7694 26.3178 28.0865 27.4755 28.0865 27.4755L25.9795 28.0027L25.1896 27.4229C25.1896 27.4229 24.2946 27.9502 23.1896 27.7381C22.0844 27.528 21.0825 26.528 20.9249 26.4736C20.7673 26.421 19.8723 26.421 20.0825 27.0008C20.2926 27.5805 19.9249 28.0534 19.7147 28.211C19.5046 28.3686 18.4501 28.6331 18.135 28.4211C17.8197 28.2091 17.0824 27.5261 16.9773 27.7888C16.8722 28.0515 16.8722 28.4736 16.4501 28.4736C16.0279 28.4736 14.9754 28.316 14.6076 27.7888C14.2399 27.2616 13.7652 26.209 13.0804 26.1039C12.3955 25.9989 12.0278 27.0514 11.0259 26.7888C10.0258 26.5261 9.65621 26.209 9.341 25.9989C9.14775 25.875 8.68619 25.4585 8.35222 25.1508Z" fill="white"/>
</g>
</g>
<g id="g3378">
<g id="g3376">
<path id="path3374" d="M27.2586 39.5682C27.2586 39.5682 28.0317 39.5682 28.5232 39.919C29.0148 40.2699 30.4895 40.1292 30.4895 39.5682C30.4895 39.0072 30.9117 38.6564 30.2081 38.3749C29.5064 38.0935 28.8741 37.8139 29.0148 37.3223C29.1555 36.8308 28.1724 36.1984 28.1724 36.1984L29.0842 35.8476C29.0842 35.8476 29.2249 36.0577 29.7165 36.4086C30.2081 36.7595 30.1387 37.3918 30.5589 37.6019C30.9792 37.812 31.8929 38.3036 32.3845 38.9359C32.8761 39.5682 32.8761 40.4106 32.9455 40.9716C33.0149 41.5326 32.3845 41.8835 31.9624 42.0955C31.5402 42.3075 30.2775 42.0955 30.2775 42.0955C30.2775 42.0955 29.5045 42.1649 29.2944 42.3769C29.0842 42.5889 28.1705 43.5008 27.9604 43.4295C27.7502 43.3582 25.5738 43.2194 25.5738 43.2194L24.5906 43.7804C24.5906 43.7804 23.8889 45.9568 23.1872 46.0975C22.4855 46.2382 21.4329 45.8874 21.0108 45.6754C20.5886 45.4633 20.3597 45.3845 20.5886 44.9023C20.9751 44.0956 21.7125 44.5515 21.7125 44.5515C21.7125 44.5515 21.9226 43.7091 22.0633 43.4989C22.204 43.2888 22.2735 42.3056 21.8532 42.375C21.431 42.4445 21.5023 43.0768 21.1515 43.2175C20.8006 43.3582 20.0276 43.4276 19.8175 43.4989C19.6073 43.5683 19.2565 43.4989 19.1852 43.7091C19.1139 43.9192 19.3052 44.8648 18.6242 45.2532C17.641 45.8142 15.6409 45.2176 15.6409 45.2176L13.851 45.7785C13.851 45.7785 12.8679 45.8836 11.8847 45.0412C10.9016 44.1988 10.3743 43.4257 9.849 43.4614C8.69324 43.5383 8.86584 44.9361 7.74197 45.287C6.61809 45.6378 5.63497 45.6022 5.56553 45.3226C5.49612 45.0412 6.47738 44.4108 6.12653 44.1293C5.77569 43.8479 5.14338 43.7785 4.6518 43.6378C4.16023 43.497 2.40594 43.0768 2.54478 42.4445C2.6855 41.8122 3.31779 41.2512 2.96694 40.9697C2.61608 40.6883 1.77365 40.0579 2.33464 39.9866C2.89564 39.9172 4.16023 39.9172 4.37037 40.3375C4.58051 40.7577 4.16023 41.5307 4.51109 41.8122C4.86194 42.0936 6.47738 42.5852 6.75694 42.3732C7.03651 42.1611 6.52805 41.3806 7.09092 41.1705C7.65193 40.9604 8.5131 41.5307 8.93338 41.3206C9.35553 41.1105 8.88086 39.5738 9.72327 39.223C10.5657 38.8721 11.6896 38.4593 12.0405 38.8815C12.3913 39.3037 11.9616 40.435 12.7253 40.9003C13.0649 41.1067 13.4326 40.1986 13.427 39.9885C13.4101 39.3036 14.4627 39.3824 14.4627 39.3824C14.4627 39.3824 14.9373 38.3299 15.5678 38.54C16.1982 38.7501 16.8849 39.3299 16.9374 39.9172C16.9581 40.1386 16.6297 40.5495 17.1213 40.829C17.6129 41.1105 18.5041 40.5776 18.9901 41.1442C19.7799 42.0655 20.8682 40.9679 20.8682 40.4782C20.8682 39.9866 21.219 38.7239 21.9207 38.934C22.6224 39.1441 23.1853 39.3562 23.4649 39.9866C23.7444 40.617 23.9564 41.1799 24.5888 41.0392C25.221 40.8985 26.0635 40.617 26.1329 40.4069C26.2061 40.2005 27.2586 39.5682 27.2586 39.5682Z" fill="white"/>
</g>
</g>
<g id="g3384">
<g id="g3382">
<path id="path3380" d="M25.9601 52.9755L17.5695 45.4105L17.8153 45.1647L18.1662 45.4105L25.9432 51.9736L25.9601 52.9755Z" fill="#048410"/>
</g>
</g>
<g id="g3390">
<g id="g3388">
<path id="path3386" d="M25.6257 28.0397L25.7833 31.7265C25.7833 31.7265 27.3631 32.0774 27.2937 32.569C27.2243 33.0605 27.7159 33.5165 27.9598 33.6215C28.2056 33.7266 28.3463 33.9724 28.4514 34.1488C28.5564 34.3251 28.9073 34.5353 28.9073 34.5353L28.8022 33.5521L31.2244 30.8147L28.4157 32.4995L28.4851 29.6214L27.607 27.7958L27.2562 27.3042L25.6257 28.0397Z" fill="white"/>
</g>
</g>
<g id="g3396">
<g id="g3394">
<path id="path3392" d="M32.0342 42.0311C32.0342 42.0311 32.0342 43.7854 32.28 43.9973C32.5258 44.2075 32.7716 44.0668 33.0868 44.3482C33.402 44.6297 33.8936 44.9805 34.1056 45.0143C34.3176 45.048 35.2989 45.3651 35.4753 45.0143C35.6517 44.6634 35.5447 44.2413 35.8261 44.1719C36.1076 44.1024 36.2821 43.6109 36.8093 43.6446C37.3365 43.6803 37.7924 44.0668 38.2484 43.9598C38.7043 43.8529 38.8093 43.2225 39.2315 43.1868C39.6536 43.1512 39.8976 43.1512 40.2503 43.502C40.6012 43.8529 40.952 44.2037 41.0927 44.275C41.2335 44.3464 41.62 44.17 41.7588 44.5208C41.8995 44.8717 41.9352 45.2582 42.2147 45.2225C42.4962 45.1869 42.9521 44.6259 42.9521 44.6259C42.9521 44.6259 43.1979 44.0649 43.7251 44.275C44.2523 44.4852 44.3574 44.7666 44.6032 44.9073C44.849 45.048 45.3762 44.9768 45.3762 44.9768L45.5169 44.3107C45.5169 44.3107 45.9391 43.9242 46.183 43.9598C46.4288 43.9955 47.1662 44.6972 47.0948 44.9786C47.0254 45.2601 46.744 46.3126 46.744 46.3126C46.744 46.3126 46.3931 46.277 46.3931 46.6635C46.3931 47.05 46.7796 47.3296 46.4626 47.5416C46.1473 47.7517 45.2692 48.1382 45.0591 48.1739C44.849 48.2095 43.6895 47.823 43.62 47.9975C43.5506 48.172 43.515 48.3484 43.62 48.5247C43.7251 48.7011 44.3574 49.613 44.3574 49.613L46.2881 51.1571L44.181 52.2979L38.7399 47.6992L33.509 51.9301L33.1581 49.8231C33.1581 49.8231 32.3157 49.4009 32.28 48.8043C32.2444 48.2076 32.3157 47.7517 32.6665 47.611C33.0174 47.4703 33.4039 47.2601 33.4039 47.05C33.4039 46.8399 33.4733 46.4177 33.2275 46.5228C32.9817 46.6279 32.9123 46.838 32.7716 46.9449C32.6309 47.05 31.614 47.1213 31.5783 46.9806C31.5427 46.8399 31.5783 46.3483 31.2275 46.3145C30.8766 46.2789 30.5614 46.3502 30.5614 45.9637C30.5614 45.5772 30.7378 45.0518 30.9123 44.9805C31.0886 44.9111 31.2988 45.0162 31.2988 44.6991C31.2988 44.382 31.0173 43.5752 31.0173 42.9448C31.0173 42.3144 31.0173 41.4344 31.0173 41.4344L31.5446 41.0836L32.0342 42.0311Z" fill="white"/>
</g>
</g>
<g id="g3402">
<g id="g3400">
<path id="path3398" d="M48.5791 56.1112C48.8774 56.3045 52.0426 58.995 52.0426 58.995L52.3241 44.9889V41.7242C52.3241 41.7242 53.2603 41.5591 53.2359 41.2852C53.2003 40.863 52.1834 39.863 52.1834 39.863L50.8494 39.7223C50.8494 39.7223 49.8493 39.0375 49.9019 39.7748C49.9544 40.5122 49.5866 41.7224 49.6392 41.5122C49.6917 41.3021 49.2977 41.3546 49.2977 41.3546L48.6917 53.2031L48.5791 56.1112Z" fill="white"/>
</g>
</g>
<g id="g3408">
<g id="g3406">
<path id="path3404" d="M50.3414 38.004C50.3414 38.004 48.3751 37.899 48.4277 38.4787C48.4802 39.0585 48.7954 39.2686 48.7429 39.4262C48.6903 39.5838 48.0055 39.9535 48.2682 40.2161C48.5309 40.4788 50.1632 41.1111 50.1632 41.1111L51.4278 39.5313L50.3414 38.004Z" fill="white"/>
</g>
</g>
<g id="g3414">
<g id="g3412">
<path id="path3410" d="M49.726 18.5914C49.726 18.5914 49.831 17.9066 49.3038 17.749C48.7766 17.5914 48.8817 17.9591 48.4614 17.749C48.0392 17.5388 48.2513 17.1692 47.9342 16.9591C47.6171 16.749 47.1968 16.0116 47.0392 16.4319C46.8816 16.854 47.1443 17.3268 46.9867 17.4844C46.8291 17.642 46.0917 17.5895 45.8816 17.4844C45.6714 17.3794 44.9341 17.1167 45.0917 17.537C45.2493 17.9572 45.3543 18.1693 45.8816 18.2218C46.4088 18.2743 46.724 18.6965 46.724 18.6965C46.724 18.6965 46.7765 19.0642 47.1987 19.5389C47.6208 20.0136 48.1462 19.5389 48.3563 19.8016C48.5665 20.0643 48.7241 20.9067 48.7241 20.9067C48.7241 20.9067 48.619 21.2219 48.2494 21.0643C47.8816 20.9067 47.7221 20.5371 47.2493 20.4845C46.7746 20.432 46.7221 19.6421 46.3544 19.4845C45.9866 19.3269 45.6696 19.3794 45.7746 19.7472C45.8797 20.1149 46.3544 20.4845 46.0898 20.432C45.8253 20.3795 44.9322 19.8523 44.7202 19.6421C44.5082 19.432 44.2455 18.7997 43.4556 18.9573C42.6657 19.1149 42.5606 19.1674 42.5081 19.432C42.4555 19.6965 41.7707 19.3794 41.7182 19.8541C41.6656 20.3288 41.9809 21.4339 42.3505 21.6966C42.7201 21.9593 43.6676 22.2238 44.1929 22.2238C44.7202 22.2238 45.4031 21.7491 45.6677 22.1187C45.9322 22.4884 45.9303 23.0662 45.6677 23.1713C45.405 23.2764 44.8778 23.3289 44.9828 23.8036C45.0879 24.2783 45.298 24.7511 45.298 24.7511C45.298 24.7511 45.0354 25.5935 45.0879 25.8562C45.1404 26.1189 45.193 26.6986 45.5101 26.6461C45.8253 26.5936 46.8272 26.1714 47.0373 25.6986C47.2475 25.2258 47.0373 24.7511 47.5646 24.646C48.0918 24.541 49.0918 24.8036 49.1443 24.3834C49.1969 23.9631 49.3019 23.0662 49.2494 22.751C49.1969 22.4358 48.9342 22.2238 49.2494 21.9086C49.5646 21.5934 49.7241 21.3814 49.6716 21.0136C49.619 20.6459 49.9173 20.0661 49.9699 19.7491C50.0243 19.4338 49.726 18.5914 49.726 18.5914Z" fill="white"/>
</g>
</g>
<g id="g3420">
<g id="g3418">
<path id="path3416" d="M50.9009 15.5051L51.1654 20.1394L49.5857 21.3496L49.111 16.1374L50.9009 15.5051Z" fill="white"/>
</g>
</g>
<g id="g3426">
<g id="g3424">
<path id="path3422" d="M11.1471 15.6198C11.1471 15.6198 11.5693 16.6386 12.059 16.8487C12.5506 17.0589 14.4812 15.8299 14.5507 16.6029C14.6201 17.3759 15.5338 17.4285 16.0066 18.2878C16.2937 18.8094 15.2861 19.3066 14.9353 19.5167C14.7627 19.6199 14.3987 19.6387 14.0779 19.6312C13.7514 19.6237 13.4587 19.8019 13.2729 20.0702C13.2504 20.104 13.2241 20.1303 13.1979 20.149C13.0403 20.2541 12.5131 19.9914 12.5131 19.9914C12.5131 19.9914 13.1453 19.2709 12.969 18.7812C12.7926 18.2897 11.3892 18.0439 10.9858 17.4116C10.5824 16.7793 10.2315 16.6742 10.3535 16.0419C10.4042 15.8018 11.1471 15.6198 11.1471 15.6198Z" fill="white"/>
</g>
</g>
<g id="g3432">
<g id="g3430">
<path id="path3428" d="M17.6271 19.235C17.4413 19.25 17.2706 19.1337 17.2143 18.9555C17.1787 18.8429 17.1393 18.7172 17.1017 18.614C17.0098 18.3551 16.7134 17.8935 16.9179 17.7641C17.1205 17.6346 17.4545 17.9855 17.8053 18.1149C18.1562 18.2444 18.6365 18.3926 18.7097 18.4282C18.7829 18.4639 18.9874 18.5202 18.9311 18.7416C18.8748 18.963 18.3213 19.13 18.2106 19.1656C18.1468 19.19 17.8597 19.2163 17.6271 19.235Z" fill="white"/>
</g>
</g>
<g id="g3438">
<g id="g3436">
<path id="path3434" d="M15.9882 47.0117L14.9357 44.6945L16.1477 44.3774L17.463 45.2199L18.463 46.9066L15.9882 47.0117Z" fill="white"/>
</g>
</g>
<g id="g3444">
<g id="g3442">
<path id="path3440" d="M39.879 47.5492L25.7321 58.8104L25.7846 55.3881L31.0719 52.9697L39.8771 46.6692L40.1247 47.5736L39.879 47.5492Z" fill="white"/>
</g>
</g>
<g id="g3450">
<g id="g3448">
<path id="path3446" d="M32.6633 35.3525C32.6633 35.3525 33.6821 36.4238 34.26 36.7916C34.8398 37.1593 35.4176 37.7391 35.4702 38.0561C35.5227 38.3732 35.5227 39.6359 36.8398 39.7935C38.157 39.9511 38.6298 37.7935 38.6298 37.5814C38.6298 37.3694 38.1026 38.0036 37.8924 38.1087C37.6823 38.2137 37.1025 38.4239 36.9449 37.4764C36.7873 36.5289 36.6166 36.6602 36.1419 36.6602C35.6672 36.6602 36.0143 36.1949 35.3126 35.8966C34.6109 35.5982 34.1549 35.6339 33.9429 35.5814C33.7328 35.5288 33.3106 35.2662 33.3106 35.2662L32.6633 35.3525Z" fill="white"/>
</g>
</g>
</g>
</g>
</svg>
